<svg id="7f6259c5-7f10-4f50-8a41-5b78a074d3fc" data-name="Layer 2" xmlns="http://www.w3.org/2000/svg" viewBox="0 0 150 100"><title>main_bg</title><rect width="150" height="100" style="fill:#00409e"/><path d="M127,95.67H24.18V9.55H93.48V9.6l0,13.35L127,23.12V95.67Zm-102.7-.1H126.87V23.23l-33.53-.17V23l0-13.35H24.28V95.57Z" style="fill:#24a3ff"/><path d="M49.1,42.47H11.79V23.82H49.1V42.47Zm-37.21-.1H49V23.92H11.89V42.37Z" style="fill:#24a3ff"/><path d="M11.88,91.34H11.83V62.1H59V91.34H11.88ZM11.93,62.2v29H58.88v-29H11.93Z" style="fill:#24a3ff"/><path d="M93.4,98.63H59V62.1H93.4V98.63Zm-34.33-.1H93.3V62.2H59.07V98.53Z" style="fill:#24a3ff"/><polygon points="93.43 91.35 93.43 91.24 143.39 91.24 143.39 52.39 93.5 52.32 93.5 52.22 143.49 52.28 143.49 91.34 93.43 91.35" style="fill:#24a3ff"/><path d="M126.83,52.28H93.37V23h33.45V52.28Zm-33.35-.1h33.24V23.12H93.48V52.18Z" style="fill:#24a3ff"/><path d="M126.95,52.28h-2.37V24.92H93.4V23.06h31.18v0h2.37V52.28Zm-2.26-.1h2.16V23.12h-2.16v0H93.5v1.65h31.18V52.18Z" style="fill:#24a3ff"/><path d="M126.77,91.39H108.41v-13h18.36v13Zm-18.26-.1h18.15V78.47H108.52V91.29Z" style="fill:#24a3ff"/><path d="M108.48,91.39H93.37v-13h15.1v13Zm-15-.1h14.89V78.47H93.48V91.29Z" style="fill:#24a3ff"/><path d="M49,55.55H30.55v-13H49v13Zm-18.36-.1H48.91V42.63H30.65V55.44Z" style="fill:#24a3ff"/><rect x="74.95" y="9.77" width="0.1" height="13.2" transform="translate(-0.14 0.64) rotate(-0.49)" style="fill:#24a3ff"/><rect x="94.74" y="9.77" width="0.1" height="13.2" transform="translate(-0.14 0.81) rotate(-0.49)" style="fill:#24a3ff"/><rect x="96.19" y="9.77" width="0.1" height="13.2" transform="translate(-0.14 0.83) rotate(-0.49)" style="fill:#24a3ff"/><rect x="97.65" y="9.77" width="0.1" height="13.2" transform="translate(-0.14 0.83) rotate(-0.49)" style="fill:#24a3ff"/><rect x="99.1" y="9.77" width="0.1" height="13.2" transform="translate(-0.14 0.84) rotate(-0.49)" style="fill:#24a3ff"/><rect x="100.55" y="9.77" width="0.1" height="13.2" transform="translate(-0.14 0.86) rotate(-0.49)" style="fill:#24a3ff"/><rect x="102.01" y="9.77" width="0.1" height="13.2" transform="translate(-0.14 0.87) rotate(-0.49)" style="fill:#24a3ff"/><rect x="103.46" y="9.77" width="0.1" height="13.2" transform="translate(-0.14 0.88) rotate(-0.49)" style="fill:#24a3ff"/><rect x="104.91" y="9.77" width="0.1" height="13.2" transform="translate(-0.14 0.89) rotate(-0.49)" style="fill:#24a3ff"/><rect x="106.37" y="9.77" width="0.1" height="13.2" transform="translate(-0.14 0.91) rotate(-0.49)" style="fill:#24a3ff"/><rect x="107.82" y="9.77" width="0.1" height="13.2" transform="translate(-0.14 0.92) rotate(-0.49)" style="fill:#24a3ff"/><rect x="109.28" y="9.77" width="0.1" height="13.2" transform="translate(-0.14 0.94) rotate(-0.49)" style="fill:#24a3ff"/><rect x="110.73" y="9.77" width="0.1" height="13.2" transform="translate(-0.14 0.94) rotate(-0.49)" style="fill:#24a3ff"/><rect x="112.18" y="9.77" width="0.1" height="13.2" transform="translate(-0.14 0.95) rotate(-0.49)" style="fill:#24a3ff"/><rect x="113.64" y="9.77" width="0.1" height="13.2" transform="translate(-0.14 0.97) rotate(-0.49)" style="fill:#24a3ff"/><rect x="115.09" y="9.77" width="0.1" height="13.2" transform="translate(-0.14 0.99) rotate(-0.49)" style="fill:#24a3ff"/><rect x="116.54" y="9.77" width="0.1" height="13.2" transform="translate(-0.14 0.99) rotate(-0.49)" style="fill:#24a3ff"/><rect x="118" y="9.77" width="0.1" height="13.2" transform="translate(-0.14 1.01) rotate(-0.49)" style="fill:#24a3ff"/><rect x="119.45" y="9.77" width="0.1" height="13.2" transform="translate(-0.13 1.02) rotate(-0.49)" style="fill:#24a3ff"/><rect x="120.9" y="9.77" width="0.1" height="13.2" transform="translate(-0.14 1.04) rotate(-0.49)" style="fill:#24a3ff"/><rect x="122.36" y="9.77" width="0.1" height="13.2" transform="translate(-0.13 1.04) rotate(-0.49)" style="fill:#24a3ff"/><rect x="123.81" y="9.77" width="0.1" height="13.2" transform="translate(-0.14 1.06) rotate(-0.49)" style="fill:#24a3ff"/><rect x="125.27" y="9.77" width="0.1" height="13.2" transform="translate(-0.13 1.07) rotate(-0.49)" style="fill:#24a3ff"/><rect x="126.72" y="9.77" width="0.1" height="13.2" transform="translate(-0.14 1.09) rotate(-0.49)" style="fill:#24a3ff"/><rect x="49.01" y="62.13" width="44.27" height="0.1" style="fill:#24a3ff"/><path d="M49,33.36H47.56v-9.5H49v9.5Zm-1.32-.1h1.22V24H47.67v9.3Z" style="fill:#24a3ff"/><path d="M25.9,21H24.34V9.82H25.9V21Zm-1.45-.1h1.35v-11H24.44v11Z" style="fill:#24a3ff"/><path d="M38.81,11h-13V10.28h13V11Zm-12.87-.1H38.71V10.38H25.95v0.48Z" style="fill:#24a3ff"/><path d="M38.75,11.75h-0.1a7.91,7.91,0,0,0,.06-0.93h0.1A8,8,0,0,1,38.75,11.75Z" style="fill:#24a3ff"/><path d="M27,20.84v-0.1c5.81-.42,10.54-3.81,11.51-8.26l0.1,0C37.64,17,32.87,20.42,27,20.84Z" style="fill:#24a3ff"/><path d="M25.8,20.88v-0.1c0.41,0,.81,0,1.21,0v0.1C26.62,20.87,26.21,20.88,25.8,20.88Z" style="fill:#24a3ff"/><path d="M94.51,62.1H93.15V52.31h1.36V62.1ZM93.25,62h1.15V52.42H93.25V62Z" style="fill:#24a3ff"/><path d="M94.51,53.32H94.46V52.71h11.22v0.61H94.51Zm0.05-.51v0.41h11V52.81h-11Z" style="fill:#24a3ff"/><path d="M105.62,54h-0.1a7.41,7.41,0,0,0,0-.81h0.1A7.14,7.14,0,0,1,105.62,54Z" style="fill:#24a3ff"/><polygon points="105.51 54.66 105.46 54.64 105.52 54.64 105.51 54.66" style="fill:#24a3ff"/><path d="M95.48,62v-0.1c5-.37,9.1-3.34,9.94-7.23l0.1,0C104.67,58.59,100.55,61.6,95.48,62Z" style="fill:#24a3ff"/><path d="M94.43,62v-0.1c0.34,0,.7,0,1.05,0V62C95.13,62,94.77,62,94.43,62Z" style="fill:#24a3ff"/><path d="M117.77,79.18h-9.34V78.36h9.34v0.82Zm-9.24-.1h9.13V78.47h-9.13v0.61Z" style="fill:#24a3ff"/><path d="M109.39,85.56H108.8V79.11h0.59v6.46Zm-0.48-.1h0.38V79.21h-0.38v6.25Z" style="fill:#24a3ff"/><path d="M109.26,85.56v-0.1l0.77,0v0.1Z" style="fill:#24a3ff"/><polygon points="110.65 85.47 110.64 85.36 110.65 85.36 110.65 85.47" style="fill:#24a3ff"/><path d="M110.66,85.47v-0.1c3.71-.48,6.54-2.8,6.89-5.66h0.1C117.29,82.62,114.41,85,110.66,85.47Z" style="fill:#24a3ff"/><path d="M117.64,79.72h-0.1a4.73,4.73,0,0,0,0-.6h0.1A4.75,4.75,0,0,1,117.64,79.72Z" style="fill:#24a3ff"/><path d="M49,55.57H39.64V54.75H49v0.82Zm-9.24-.1h9.13V54.85H39.74v0.61Z" style="fill:#24a3ff"/><path d="M48.6,54.83H48V48.37H48.6v6.45Zm-0.49-.1h0.38V48.48H48.11v6.25Z" style="fill:#24a3ff"/><path d="M47.37,48.51V48.4l0.78,0v0.1Z" style="fill:#24a3ff"/><polygon points="46.75 48.57 46.75 48.46 46.76 48.57 46.76 48.52 46.76 48.57 46.75 48.57" style="fill:#24a3ff"/><path d="M39.86,54.22h-0.1c0.36-2.9,3.23-5.27,7-5.75v0.1C43,49,40.21,51.37,39.86,54.22Z" style="fill:#24a3ff"/><path d="M39.83,54.82h-0.1a5,5,0,0,1,0-.61h0.1A4.85,4.85,0,0,0,39.83,54.82Z" style="fill:#24a3ff"/><path d="M94.31,91.27h-1V84h1v7.25Zm-0.93-.1h0.82v-7H93.39v7Z" style="fill:#24a3ff"/><path d="M94.24,91V90.5h8.31V91H94.24Zm0.1-.37v0.27h8.1V90.6h-8.1Z" style="fill:#24a3ff"/><path d="M102.55,90.62h-0.1a5.43,5.43,0,0,0,0-.6h0.1A5.41,5.41,0,0,1,102.55,90.62Z" style="fill:#24a3ff"/><polygon points="102.34 89.57 102.34 89.57 102.34 89.57 102.34 89.57 102.33 89.54 102.38 89.54 102.43 89.52 102.39 89.54 102.43 89.54 102.38 89.54 102.34 89.57" style="fill:#24a3ff"/><path d="M102.33,89.55c-0.61-2.87-3.62-5.06-7.32-5.33v-0.1c3.74,0.28,6.79,2.5,7.41,5.41Z" style="fill:#24a3ff"/><path d="M95,84.22l-0.77,0v-0.1l0.78,0v0.1Z" style="fill:#24a3ff"/><path d="M93.43,63.24H80.81V62.16H93.43v1.08Zm-12.52-.1H93.32V62.27H80.91v0.87Z" style="fill:#24a3ff"/><path d="M92.91,71.88H92.15V63.17h0.76v8.71Zm-0.66-.1h0.55v-8.5H92.25v8.5Z" style="fill:#24a3ff"/><path d="M92.32,71.87c-0.35,0-.71,0-1.06,0v-0.1c0.35,0,.7,0,1.05,0v0.1Z" style="fill:#24a3ff"/><polygon points="90.43 71.75 90.43 71.65 90.44 71.7 90.43 71.75" style="fill:#24a3ff"/><path d="M90.42,71.75c-5.08-.65-9-3.85-9.45-7.77h0.1c0.47,3.88,4.32,7,9.36,7.68v0.1Z" style="fill:#24a3ff"/><path d="M81,64a6.72,6.72,0,0,1,0-.82H81a6.71,6.71,0,0,0,0,.81H81Z" style="fill:#24a3ff"/><path d="M59,63.13H46.39V62H59v1.08ZM46.49,63H58.91V62.15H46.49V63Z" style="fill:#24a3ff"/><path d="M58.5,71.77H57.74V63.06H58.5v8.71Zm-0.66-.1h0.55v-8.5H57.84v8.5Z" style="fill:#24a3ff"/><path d="M57.9,71.76c-0.36,0-.71,0-1.06,0v-0.1c0.34,0,.7,0,1.05,0v0.1Z" style="fill:#24a3ff"/><polygon points="56.02 71.64 56.01 71.64 56.01 71.54 56.02 71.64" style="fill:#24a3ff"/><path d="M56,71.64c-5.08-.65-9-3.85-9.45-7.77h0.1c0.47,3.88,4.32,7,9.36,7.68v0.1Z" style="fill:#24a3ff"/><path d="M46.56,63.87A6.74,6.74,0,0,1,46.51,63h0.1a6.73,6.73,0,0,0,0,.81h-0.1Z" style="fill:#24a3ff"/><path d="M75,49.8H69.36a1.11,1.11,0,0,1-1.25-.87V40.85A1.11,1.11,0,0,1,69.36,40H75a1.11,1.11,0,0,1,1.25.88v8.08A1.11,1.11,0,0,1,75,49.8Zm-5.68-9.73a1,1,0,0,0-1.14.77v8.08a1,1,0,0,0,1.14.77H75a1,1,0,0,0,1.14-.77V40.85A1,1,0,0,0,75,40.07H69.36Z" style="fill:#24a3ff"/><path d="M73.09,52.23H71a0.53,0.53,0,0,1-.58-0.46V50.17A0.53,0.53,0,0,1,71,49.71h2.06a0.53,0.53,0,0,1,.58.46v1.59A0.53,0.53,0,0,1,73.09,52.23ZM71,49.81a0.43,0.43,0,0,0-.48.36v1.59a0.43,0.43,0,0,0,.48.36h2.06a0.43,0.43,0,0,0,.48-0.36V50.17a0.43,0.43,0,0,0-.48-0.36H71Z" style="fill:#24a3ff"/><path d="M71,40.08h0a0.54,0.54,0,0,1-.58-0.46V38a0.4,0.4,0,0,1,.13-0.29A0.65,0.65,0,0,1,71,37.56h2.06a0.53,0.53,0,0,1,.58.46v1.59a0.53,0.53,0,0,1-.58.46H71Zm0-2.42a0.54,0.54,0,0,0-.38.15,0.3,0.3,0,0,0-.1.21v1.59A0.43,0.43,0,0,0,71,40h2.06a0.43,0.43,0,0,0,.48-0.36V38a0.43,0.43,0,0,0-.48-0.36H71Z" style="fill:#24a3ff"/><path d="M67.64,48.24H65.58A0.53,0.53,0,0,1,65,47.78V46.18a0.53,0.53,0,0,1,.58-0.46h2.06a0.65,0.65,0,0,1,.46.18,0.4,0.4,0,0,1,.13.29v1.59A0.53,0.53,0,0,1,67.64,48.24Zm-2.06-2.42a0.43,0.43,0,0,0-.48.36v1.59a0.43,0.43,0,0,0,.48.36h2.06a0.43,0.43,0,0,0,.48-0.36V46.18A0.3,0.3,0,0,0,68,46a0.54,0.54,0,0,0-.38-0.14H65.58Z" style="fill:#24a3ff"/><path d="M67.64,44.19H65.58A0.64,0.64,0,0,1,65.12,44,0.41,0.41,0,0,1,65,43.73V42.13a0.53,0.53,0,0,1,.58-0.46h2.06a0.53,0.53,0,0,1,.58.46v1.59a0.41,0.41,0,0,1-.13.29A0.64,0.64,0,0,1,67.64,44.19Zm-2.06-2.42a0.43,0.43,0,0,0-.48.36v1.59a0.3,0.3,0,0,0,.1.21,0.54,0.54,0,0,0,.38.14h2.06A0.54,0.54,0,0,0,68,43.94a0.3,0.3,0,0,0,.1-0.21V42.13a0.43,0.43,0,0,0-.48-0.36H65.58Z" style="fill:#24a3ff"/><path d="M78.85,48.24H76.79a0.53,0.53,0,0,1-.58-0.46V46.18a0.53,0.53,0,0,1,.58-0.46h2.06a0.53,0.53,0,0,1,.58.46v1.59a0.4,0.4,0,0,1-.12.29A0.65,0.65,0,0,1,78.85,48.24Zm-2.06-2.42a0.43,0.43,0,0,0-.48.36v1.59a0.43,0.43,0,0,0,.48.36h2.06A0.54,0.54,0,0,0,79.24,48a0.3,0.3,0,0,0,.09-0.21V46.18a0.43,0.43,0,0,0-.48-0.36H76.79Z" style="fill:#24a3ff"/><path d="M78.85,44.19H76.79a0.53,0.53,0,0,1-.58-0.46V42.13a0.53,0.53,0,0,1,.58-0.46h2.06a0.53,0.53,0,0,1,.58.46v1.59A0.53,0.53,0,0,1,78.85,44.19Zm-2.06-2.42a0.43,0.43,0,0,0-.48.36v1.59a0.43,0.43,0,0,0,.48.36h2.06a0.43,0.43,0,0,0,.48-0.36V42.13a0.43,0.43,0,0,0-.48-0.36H76.79Z" style="fill:#24a3ff"/><path d="M94.81,52.14H93.38V35.95h1.43v16.2ZM93.48,52H94.7V36H93.48V52Z" style="fill:#24a3ff"/><rect x="94.08" y="36.02" width="0.1" height="16.07" style="fill:#24a3ff"/><rect x="93.36" y="43.94" width="1.43" height="0.1" style="fill:#24a3ff"/><path d="M126.79,78.26h-1.43V62h1.43V78.26Zm-1.32-.1h1.22v-16h-1.22v16Z" style="fill:#24a3ff"/><rect x="126.07" y="62.12" width="0.1" height="16.1" style="fill:#24a3ff"/><rect x="125.35" y="70.05" width="1.43" height="0.1" style="fill:#24a3ff"/><path d="M82.5,12.67H59.57v-3H82.5v3Zm-22.83-.1H82.4V9.77H59.67v2.79Z" style="fill:#24a3ff"/><path d="M76.61,10.51h-11v-0.4h11v0.4Zm-10.89-.1H76.5V10.22H65.71v0.19Z" style="fill:#24a3ff"/><path d="M35.74,62.11H30.59V55.55h5.16v6.56ZM30.69,62h5V55.66h-5V62Z" style="fill:#24a3ff"/><path d="M34.16,60.1h0a1.48,1.48,0,1,1,1.27-1.46,1.38,1.38,0,0,1-1.27,1.46Zm0-2.82a1.37,1.37,0,0,0,0,2.72h0A1.37,1.37,0,0,0,34.16,57.28Z" style="fill:#24a3ff"/><path d="M31.64,62h-1V55.73h1V62Zm-0.89-.1h0.79v-6H30.75v6Z" style="fill:#24a3ff"/><path d="M80.16,32.87H63.28a1.66,1.66,0,0,1-1.82-1.42V28.89a1.66,1.66,0,0,1,1.82-1.42H80.16A1.66,1.66,0,0,1,82,28.89v2.56A1.66,1.66,0,0,1,80.16,32.87ZM63.28,27.58a1.56,1.56,0,0,0-1.71,1.31v2.56a1.56,1.56,0,0,0,1.71,1.31H80.16a1.56,1.56,0,0,0,1.71-1.31V28.89a1.56,1.56,0,0,0-1.71-1.31H63.28Z" style="fill:#24a3ff"/><path d="M80.16,32.87H63.28a1.69,1.69,0,0,1-1.81-1.29l0-2.66a1.54,1.54,0,0,1,1.38-1.41h0.06v4H80.55v-4h0.06A1.54,1.54,0,0,1,82,28.93l0,2.73A1.72,1.72,0,0,1,80.16,32.87ZM62.82,27.62a1.42,1.42,0,0,0-1.23,1.3l0,2.65a1.61,1.61,0,0,0,1.71,1.19H80.16a1.64,1.64,0,0,0,1.69-1.12l0-2.72a1.42,1.42,0,0,0-1.23-1.3v4H62.82v-4Z" style="fill:#24a3ff"/><path d="M89,27.6H85.68a1.66,1.66,0,0,1-1.82-1.42V23.51a1.66,1.66,0,0,1,1.82-1.42H89a1.66,1.66,0,0,1,1.82,1.42v2.67A1.66,1.66,0,0,1,89,27.6Zm-3.31-5.41A1.56,1.56,0,0,0,84,23.51v2.67a1.56,1.56,0,0,0,1.71,1.31H89a1.56,1.56,0,0,0,1.71-1.31V23.51A1.56,1.56,0,0,0,89,22.19H85.68Z" style="fill:#24a3ff"/><path d="M89,27.6H85.68a1.78,1.78,0,0,1-1.77-1.09l0-.07H84c1,0,4.57-.08,5.05-0.08,0-1.06,0-2.94,0-3.26H83.94L84,23a1.86,1.86,0,0,1,1.71-.93H89a1.66,1.66,0,0,1,1.82,1.42v2.67A1.66,1.66,0,0,1,89,27.6Zm-5-1.05a1.71,1.71,0,0,0,1.64.95H89a1.56,1.56,0,0,0,1.71-1.31V23.51A1.56,1.56,0,0,0,89,22.19H85.68a1.79,1.79,0,0,0-1.58.8h5v0s0,0,0,3.38v0.05H89.05C88.77,26.47,85.14,26.52,84,26.55Z" style="fill:#24a3ff"/><path d="M88.88,20.68H85.57a1.66,1.66,0,0,1-1.82-1.42V16.59a1.66,1.66,0,0,1,1.82-1.42h3.31a1.66,1.66,0,0,1,1.82,1.42v2.67A1.66,1.66,0,0,1,88.88,20.68Zm-3.31-5.41a1.56,1.56,0,0,0-1.71,1.31v2.67a1.56,1.56,0,0,0,1.71,1.32h3.31a1.55,1.55,0,0,0,1.71-1.32V16.59a1.55,1.55,0,0,0-1.71-1.31H85.57Z" style="fill:#24a3ff"/><path d="M88.88,20.68H85.57A1.78,1.78,0,0,1,83.8,19.6l0-.07h0.07c1,0,4.57-.08,5.05-0.08,0-1.06,0-2.94,0-3.26H83.83l0-.07a1.86,1.86,0,0,1,1.71-.94h3.31a1.66,1.66,0,0,1,1.82,1.42v2.67A1.66,1.66,0,0,1,88.88,20.68Zm-5-1.05a1.71,1.71,0,0,0,1.64.95h3.31a1.55,1.55,0,0,0,1.71-1.32V16.59a1.55,1.55,0,0,0-1.71-1.31H85.57a1.79,1.79,0,0,0-1.57.8h5v0s0,0,0,3.38v0.05H88.94C88.61,19.56,85,19.61,83.92,19.63Z" style="fill:#24a3ff"/><path d="M72.71,10.81H70v-1h2.75v1Zm-2.65-.1H72.6V10H70.06V10.7Z" style="fill:#24a3ff"/><path d="M80.13,87.63H59.41V73.69H80.13V87.63Zm-20.62-.1H80V73.8H59.51V87.53Z" style="fill:#24a3ff"/><path d="M63.57,86.22a1.19,1.19,0,0,1-1.3-1V83.49a0.92,0.92,0,0,1,.39-0.73,1.57,1.57,0,0,1,1.83,0,0.92,0.92,0,0,1,.39.73V85.2A1.19,1.19,0,0,1,63.57,86.22Zm0-3.64a1.39,1.39,0,0,0-.85.27,0.81,0.81,0,0,0-.35.64V85.2a1.24,1.24,0,0,0,2.4,0V83.49a0.82,0.82,0,0,0-.35-0.64A1.39,1.39,0,0,0,63.57,82.58Z" style="fill:#24a3ff"/><path d="M62.91,82.52a1.6,1.6,0,0,1-.65-0.13,1.08,1.08,0,0,1-.63-0.68A0.84,0.84,0,0,1,61.79,81l1.1-1.48A1.41,1.41,0,0,1,64,79a1.59,1.59,0,0,1,.65.13,1.07,1.07,0,0,1,.63.68,0.83,0.83,0,0,1-.15.72L64,82A1.41,1.41,0,0,1,62.91,82.52ZM64,79.11a1.31,1.31,0,0,0-1,.46L61.87,81a0.73,0.73,0,0,0-.13.63,1,1,0,0,0,.57.61,1.47,1.47,0,0,0,.6.13A1.3,1.3,0,0,0,64,82l1.1-1.48a0.73,0.73,0,0,0,.13-0.63,1,1,0,0,0-.57-0.61A1.49,1.49,0,0,0,64,79.11Z" style="fill:#24a3ff"/><path d="M63.43,79.28a1.19,1.19,0,0,1-1.3-1V76.55a1.34,1.34,0,0,1,2.6,0v1.71A1.19,1.19,0,0,1,63.43,79.28Zm0-3.64a1.09,1.09,0,0,0-1.2.92v1.71a1.24,1.24,0,0,0,2.4,0V76.55A1.09,1.09,0,0,0,63.43,75.63Z" style="fill:#24a3ff"/><path d="M80.13,87.63H65.08a1.16,1.16,0,0,1-.42-0.86V74.65a1.19,1.19,0,0,1,.53-0.95H80.13V87.63Zm-15-.1H80V73.8H65.24a1.08,1.08,0,0,0-.47.85V86.76A1.05,1.05,0,0,0,65.14,87.53Z" style="fill:#24a3ff"/><path d="M59.49,87.58V73.74h2.4V87.58h-2.4Zm0.1-13.74V87.48h2.19V73.84H59.59Z" style="fill:#24a3ff"/><path d="M43.9,91.08h-18V75h18V91.08ZM26,91H43.8V75.13H26V91Z" style="fill:#24a3ff"/><path d="M40.78,88.86H38.57a1.5,1.5,0,0,1-.92-0.29,0.92,0.92,0,0,1-.39-0.72,1.19,1.19,0,0,1,1.3-1h2.21A1,1,0,1,1,40.78,88.86Zm-2.21-1.93a1.09,1.09,0,0,0-1.2.91,0.82,0.82,0,0,0,.35.64,1.39,1.39,0,0,0,.85.27h2.21a0.95,0.95,0,1,0,0-1.83H38.57Z" style="fill:#24a3ff"/><path d="M36,89.38a1.59,1.59,0,0,1-.65-0.13l-1.91-.85a1.07,1.07,0,0,1-.63-0.68A0.83,0.83,0,0,1,33,87a1.41,1.41,0,0,1,1.13-.5,1.59,1.59,0,0,1,.65.13l1.91,0.85a1.07,1.07,0,0,1,.63.68,0.83,0.83,0,0,1-.15.72A1.41,1.41,0,0,1,36,89.38Zm-1.91-2.79a1.3,1.3,0,0,0-1,.46,0.73,0.73,0,0,0-.13.63,1,1,0,0,0,.57.61l1.91,0.85a1.49,1.49,0,0,0,.6.13,1.3,1.3,0,0,0,1-.46,0.73,0.73,0,0,0,.13-0.63,1,1,0,0,0-.57-0.61l-1.91-.86A1.49,1.49,0,0,0,34.09,86.59Z" style="fill:#24a3ff"/><path d="M31.81,89H29.6a1.05,1.05,0,1,1,0-2h2.21A1.05,1.05,0,1,1,31.81,89ZM29.6,87a0.95,0.95,0,1,0,0,1.83h2.21a0.95,0.95,0,1,0,0-1.83H29.6Z" style="fill:#24a3ff"/><path d="M42.79,87H27.14a1.92,1.92,0,0,1-1.2-.41l0,0V75h18V86.68l0,0A2,2,0,0,1,42.79,87ZM26,86.54a1.82,1.82,0,0,0,1.12.37H42.79a1.87,1.87,0,0,0,1-.29V75.12H26V86.54Z" style="fill:#24a3ff"/><path d="M43.84,91H26V89.14H43.84V91Zm-17.76-.1H43.74V89.24H26.09v1.67Z" style="fill:#24a3ff"/><path d="M49,42.49H30.67V39.22H49v3.27Zm-18.19-.1H48.87V39.32H30.78v3.07Z" style="fill:#24a3ff"/><path d="M49,39.3H45.58V33.47H49V39.3Zm-3.31-.1h3.21V33.57H45.68v5.62Z" style="fill:#24a3ff"/><path d="M48,36.4H46.62c-0.48,0-.65-0.14-0.65-0.52V34.83c0-.38.17-0.52,0.65-0.52H48c0.48,0,.65.14,0.65,0.52v1.06C48.64,36.26,48.47,36.4,48,36.4Zm-1.37-2c-0.43,0-.55.09-0.55,0.41v1.06c0,0.32.12,0.41,0.55,0.41H48c0.43,0,.55-0.09.55-0.41V34.83c0-.32-0.12-0.41-0.55-0.41H46.62Z" style="fill:#24a3ff"/><path d="M63.56,66.79H61.5a0.51,0.51,0,0,1-.58-0.37V65.19a0.51,0.51,0,0,1,.58-0.37h2.06a0.51,0.51,0,0,1,.58.37v1.23A0.51,0.51,0,0,1,63.56,66.79ZM61.5,64.92a0.43,0.43,0,0,0-.48.27v1.23a0.43,0.43,0,0,0,.48.27h2.06A0.43,0.43,0,0,0,64,66.42V65.19a0.43,0.43,0,0,0-.48-0.27H61.5Z" style="fill:#24a3ff"/><path d="M80.66,65H59V62.13H80.66V65Zm-21.56-.1H80.55V62.23H59.09v2.66Z" style="fill:#24a3ff"/><path d="M66,65h-7V62.13h7V65ZM59,64.89h6.83V62.23H59v2.66Z" style="fill:#24a3ff"/><path d="M79.27,65l-0.35-.11L80.48,62l0.35,0.11Zm-0.2-.17,0.15,0,1.46-2.68-0.15,0Z" style="fill:#24a3ff"/><path d="M78.06,65l-0.35-.12L79.27,62l0.35,0.11Zm-0.2-.18,0.15,0,1.46-2.68-0.15,0Z" style="fill:#24a3ff"/><path d="M76.86,65l-0.35-.12L78.06,62l0.35,0.11Zm-0.2-.17,0.15,0,1.46-2.68-0.15,0Z" style="fill:#24a3ff"/><path d="M75.65,65l-0.35-.12L76.86,62l0.35,0.12Zm-0.2-.17,0.15,0,1.46-2.68-0.15,0Z" style="fill:#24a3ff"/><path d="M74.44,65l-0.35-.11L75.65,62,76,62.13Zm-0.2-.17,0.15,0,1.46-2.68-0.15,0Z" style="fill:#24a3ff"/><path d="M73.24,65l-0.35-.12L74.44,62l0.35,0.12ZM73,64.83l0.15,0,1.46-2.68-0.15,0Z" style="fill:#24a3ff"/><path d="M72,65l-0.35-.12L73.24,62l0.35,0.12Zm-0.2-.17,0.15,0,1.46-2.68-0.15,0Z" style="fill:#24a3ff"/><path d="M70.82,65l-0.35-.12L72,62l0.35,0.12Zm-0.2-.18,0.15,0,1.46-2.68-0.15,0Z" style="fill:#24a3ff"/><path d="M69.61,65l-0.35-.11L70.82,62l0.35,0.12Zm-0.2-.17,0.15,0L71,62.22l-0.15,0Z" style="fill:#24a3ff"/><path d="M68.41,65l-0.35-.11,1.56-2.87L70,62.17Zm-0.2-.17,0.15,0,1.46-2.68-0.15,0Z" style="fill:#24a3ff"/><path d="M67.2,65.05l-0.35-.11,1.56-2.87,0.35,0.11ZM67,64.88l0.15,0,1.46-2.68-0.15,0Z" style="fill:#24a3ff"/><path d="M66,65.06l-0.35-.12,1.56-2.87,0.35,0.11Zm-0.2-.18,0.15,0,1.46-2.68-0.15,0Z" style="fill:#24a3ff"/><path d="M29.14,66.79H27.08a0.51,0.51,0,0,1-.58-0.37V65.19a0.51,0.51,0,0,1,.58-0.37h2.06a0.51,0.51,0,0,1,.58.37v1.23A0.51,0.51,0,0,1,29.14,66.79Zm-2.06-1.87a0.43,0.43,0,0,0-.48.27v1.23a0.43,0.43,0,0,0,.48.27h2.06a0.43,0.43,0,0,0,.48-0.27V65.19a0.43,0.43,0,0,0-.48-0.27H27.08Z" style="fill:#24a3ff"/><path d="M46.24,65H24.57V62.13H46.24V65Zm-21.56-.1H46.14V62.23H24.68v2.66Z" style="fill:#24a3ff"/><path d="M31.56,65h-7V62.13h7V65Zm-6.93-.1h6.83V62.23H24.63v2.66Z" style="fill:#24a3ff"/><path d="M44.85,65l-0.35-.11L46.06,62l0.35,0.11Zm-0.2-.17,0.15,0,1.46-2.68-0.15,0Z" style="fill:#24a3ff"/><path d="M43.65,65l-0.35-.11L44.86,62l0.35,0.11Zm-0.2-.17,0.15,0,1.46-2.68-0.15,0Z" style="fill:#24a3ff"/><path d="M42.44,65l-0.35-.12L43.65,62,44,62.11Zm-0.2-.17,0.15,0,1.46-2.68-0.15,0Z" style="fill:#24a3ff"/><path d="M41.23,65l-0.35-.12L42.44,62l0.35,0.12ZM41,64.81l0.15,0,1.46-2.68-0.15,0Z" style="fill:#24a3ff"/><path d="M40,65l-0.35-.11L41.24,62l0.35,0.12Zm-0.2-.17,0.15,0,1.46-2.68-0.15,0Z" style="fill:#24a3ff"/><path d="M38.82,65l-0.35-.12L40,62l0.35,0.12Zm-0.2-.17,0.15,0,1.46-2.68-0.15,0Z" style="fill:#24a3ff"/><path d="M37.61,65l-0.35-.12L38.82,62l0.35,0.12Zm-0.2-.17,0.15,0L39,62.21l-0.15,0Z" style="fill:#24a3ff"/><path d="M36.41,65l-0.35-.12L37.61,62,38,62.15Zm-0.2-.18,0.15,0,1.46-2.68-0.15,0Z" style="fill:#24a3ff"/><path d="M35.2,65l-0.35-.11L36.41,62l0.35,0.12ZM35,64.86l0.15,0,1.46-2.68-0.15,0Z" style="fill:#24a3ff"/><path d="M34,65l-0.35-.11,1.56-2.87,0.35,0.11Zm-0.2-.17,0.15,0,1.46-2.68-0.15,0Z" style="fill:#24a3ff"/><path d="M32.79,65.05l-0.35-.11L34,62.07l0.35,0.11Zm-0.2-.17,0.15,0,1.46-2.68-0.15,0Z" style="fill:#24a3ff"/><path d="M31.58,65.06l-0.35-.12,1.56-2.87,0.35,0.11Zm-0.2-.18,0.15,0L33,62.25l-0.15,0Z" style="fill:#24a3ff"/><path d="M55.25,55.49H49.1V33.36h6.15V55.49Zm-6-.1h5.94V33.47H49.21V55.39Z" style="fill:#24a3ff"/><path d="M50.06,55.49l-1-.39V54.55l2.32,0.94H50.06ZM49.21,55l0.87,0.35h0.81l-1.68-.68V55ZM55,55.49H53.61L49.1,53.65V53.1Zm-1.34-.1h0.81l-5.25-2.14v0.33Zm1.61-.69L49.1,52.2V51.64l6.15,2.5V54.7Zm-6-2.57,5.94,2.42V54.22L49.21,51.8v0.33Zm6,1.12-6.15-2.5V50.19l6.15,2.5v0.55Zm-6-2.57,5.94,2.42V52.76l-5.94-2.42v0.33Zm6,1.12-6.15-2.5V48.74l6.15,2.5V51.8Zm-6-2.57,5.94,2.42V51.31l-5.94-2.42v0.33Zm6,1.12-6.15-2.5V47.29l6.15,2.5v0.55Zm-6-2.57,5.94,2.42V49.86l-5.94-2.42v0.33Zm6,1.12-6.15-2.5V45.83l6.15,2.5v0.55Zm-6-2.57,5.94,2.42V48.41L49.21,46v0.33Zm6,1.12-6.15-2.5V44.38l6.15,2.5v0.55Zm-6-2.57,5.94,2.42V47l-5.94-2.42v0.33Zm6,1.12-6.15-2.5V42.93l6.15,2.5V46Zm-6-2.57,5.94,2.42V45.5l-5.94-2.42v0.33Zm6,1.12L49.1,42V41.47L55.25,44v0.55Zm-6-2.57,5.94,2.42V44l-5.94-2.42V42Zm6,1.12-6.15-2.5V40l6.15,2.5v0.55Zm-6-2.57,5.94,2.42V42.6l-5.94-2.42v0.33Zm6,1.12-6.15-2.5V38.57l6.15,2.5v0.55Zm-6-2.57,5.94,2.42V41.14l-5.94-2.42v0.33Zm6,1.12-6.15-2.5V37.12l6.15,2.5v0.55Zm-6-2.57L55.15,40V39.69l-5.94-2.42V37.6Zm6,1.12-6.15-2.5V35.66l6.15,2.5v0.55Zm-6-2.57,5.94,2.42V38.24l-5.94-2.42v0.33Zm6,1.12-6.15-2.5V34.21l6.15,2.5v0.56Zm-6-2.57,5.94,2.42V36.78l-5.94-2.42V34.7Zm6,1.12-6-2.45h1.37l4.66,1.9v0.55Zm-5.5-2.35,5.39,2.2V35.33l-4.58-1.87H49.75Zm5.5,0.9-2.46-1h1.37l1.09,0.44v0.55Zm-1.93-.9,1.82,0.74V33.88l-1-.41H53.32Z" style="fill:#24a3ff"/><path d="M119.15,56.51h-8.71v-4.2h8.71v4.2Zm-8.6-.1H119v-4h-8.5v4Z" style="fill:#24a3ff"/><path d="M116.26,53.81h-4.15V53.54h4.15v0.28Zm-4-.1h3.94V53.64h-3.94v0.07Z" style="fill:#24a3ff"/><path d="M115.21,54h-2.05V53.22h2.05V54Zm-1.95-.1h1.84V53.33h-1.84v0.54Z" style="fill:#24a3ff"/><path d="M116.5,55.15a0.35,0.35,0,1,1,.33-0.35A0.34,0.34,0,0,1,116.5,55.15Zm0-.6a0.25,0.25,0,1,0,.22.25A0.24,0.24,0,0,0,116.5,54.55Z" style="fill:#24a3ff"/><path d="M118.17,55.28h0c-0.36,0-.55-0.11-0.55-0.34V53.4c0-.27.3-0.28,0.56-0.28s0.56,0,.56.28v1.54C118.73,55.09,118.64,55.28,118.17,55.28Zm0-2c-0.31,0-.46,0-0.46.17v1.54c0,0.06,0,.24.44,0.24v0h0c0.3,0,.46-0.08.46-0.24V53.4C118.63,53.25,118.48,53.23,118.17,53.23Z" style="fill:#24a3ff"/><path d="M116.76,53.79a0.09,0.09,0,0,1-.11-0.11V53.4a0.09,0.09,0,0,1,.11-0.11h0.4a0.09,0.09,0,0,1,.11.11v0.29a0.09,0.09,0,0,1-.11.11h-0.4Zm0-.1h0.41V53.4h-0.41v0.29h0Z" style="fill:#24a3ff"/><path d="M111.08,53.8a0.09,0.09,0,0,1-.11-0.11V53.4a0.09,0.09,0,0,1,.11-0.11h0.4a0.09,0.09,0,0,1,.11.11v0.29a0.09,0.09,0,0,1-.11.11h-0.4Zm0-.1h0.42V53.4h-0.42v0.29h0Z" style="fill:#24a3ff"/><path d="M112.67,55V54h3V55h-3Zm0.11-.85v0.74h2.81V54.11h-2.81Z" style="fill:#24a3ff"/><path d="M106.75,76.46H94.93V76.39s0,0,0,0V65.24a1.51,1.51,0,0,1,1.63-1.34h8.56a1.51,1.51,0,0,1,1.63,1.34V76.39a0.09,0.09,0,0,0,0,0v0.05ZM95,76.36h11.62V65.24A1.41,1.41,0,0,0,105.12,64H96.56A1.4,1.4,0,0,0,95,65.24V76.36h0Z" style="fill:#24a3ff"/><path d="M106.79,78.44H95V76.31h11.83v2.14Zm-11.72-.1h11.62V76.41H95.07v1.93Z" style="fill:#24a3ff"/><path d="M102.17,75.88h-1.86a0.72,0.72,0,1,1,0-1.34h1.86A0.72,0.72,0,1,1,102.17,75.88Zm-1.86-1.23a0.62,0.62,0,1,0,0,1.13h1.86a0.62,0.62,0,1,0,0-1.13h-1.86Z" style="fill:#24a3ff"/><path d="M116.17,91.3h-7.66V89h7.66V91.3Zm-7.56-.1h7.46V89.12h-7.46v2.07Z" style="fill:#24a3ff"/><path d="M112.48,90.74a2.46,2.46,0,0,1-1.61-.46,0.42,0.42,0,0,1,0-.64,2.46,2.46,0,0,1,1.61-.46c1,0,1.76.34,1.76,0.78S113.46,90.74,112.48,90.74Zm0-1.45a2.36,2.36,0,0,0-1.54.43,0.35,0.35,0,0,0-.12.25,0.36,0.36,0,0,0,.12.25,2.37,2.37,0,0,0,1.54.43c0.9,0,1.66-.31,1.66-0.67S113.38,89.29,112.48,89.29Z" style="fill:#24a3ff"/><path d="M115,91.21h-5.29V90.89H115v0.32Zm-5.18-.1h5.08V91h-5.08v0.11Z" style="fill:#24a3ff"/><path d="M108.29,91.24h-2.71V85.72h2.71v5.52Zm-2.61-.1h2.5V85.82h-2.5v5.31Z" style="fill:#24a3ff"/><path d="M106.7,89.66a1.35,1.35,0,1,1,.92-1.28A1.14,1.14,0,0,1,106.7,89.66Zm0-2.45a1.25,1.25,0,1,0,.82,1.17A1,1,0,0,0,106.7,87.21Z" style="fill:#24a3ff"/><path d="M108.19,90.37h-0.36V86.55h0.36v3.82Zm-0.25-.1h0.15V86.65h-0.15v3.61Z" style="fill:#24a3ff"/><path d="M126.9,52.28H126.7l0.24-.15v0.15H126.9Zm-2.31-.19V51.46l2.37-1.57v0.63Zm0.1-.58v0.38l2.16-1.43V50.08Zm-0.1-1.66V49.22l2.37-1.57v0.63Zm0.1-.58v0.38l2.16-1.43V47.85Zm-0.1-1.66V47l2.37-1.57V46Zm0.1-.58v0.38L126.84,46V45.61Zm-0.1-1.66V44.75l2.37-1.57v0.63Zm0.1-.58v0.38l2.16-1.43V43.37Zm-0.1-1.66V42.51l2.37-1.57v0.63Zm0.1-.58V43l2.16-1.43V41.14Zm-0.1-1.66V40.28l2.37-1.57v0.63Zm0.1-.57v0.38l2.16-1.43V38.9Zm-0.1-1.66V38l2.37-1.57V37.1Zm0.1-.58v0.38L126.84,37V36.67Zm-0.1-1.66V35.81l2.37-1.57v0.63Zm0.1-.57v0.38l2.16-1.43V34.43Zm-0.1-1.66V33.57L126.95,32v0.63Zm0.1-.57V34l2.16-1.43V32.2ZM124.58,32V31.34l2.37-1.57V30.4Zm0.1-.58v0.38l2.16-1.43V30Zm-0.1-1.66V29.1l2.37-1.57v0.63Zm0.1-.57v0.38l2.16-1.43V27.73Zm-0.1-1.66V26.87l2.37-1.57v0.63Zm0.1-.58V27.3l2.16-1.43V25.49Zm-0.1-1.66V24.92h-0.44l2.8-1.86v0.63Zm-0.09-.45h0.2v0.25l2.16-1.43V23.25Zm-3.05.1h-1l2.8-1.85h1Zm-0.61-.1h0.57l2.48-1.65h-0.57Zm-2.28.1h-1l2.8-1.85h1Zm-0.61-.1h0.57L121,23.17h-0.57Zm-2.28.1h-1l2.8-1.85h1Zm-0.6-.1h0.57l2.48-1.65h-0.57Zm-2.28.1h-1l2.8-1.85h1Zm-0.61-.1h0.57l2.48-1.65h-0.57Zm-2.28.1h-1l2.8-1.85h1Zm-0.61-.1h0.58l2.48-1.65h-0.57Zm-2.28.1h-1l2.8-1.85h1Zm-0.61-.1H107l2.48-1.65h-0.58Zm-2.28.1h-1l2.8-1.85h1Zm-0.61-.1h0.58l2.48-1.65H106Zm-2.28.1h-1l2.8-1.85h1Zm-0.61-.1h0.57l2.48-1.65h-0.57Zm-2.28.1h-1l2.8-1.85h1Zm-0.61-.1h0.58l2.48-1.65h-0.57Zm-2.28.1h-1l2.8-1.85h1Zm-0.6-.1h0.57l2.48-1.65H97.34Zm-1.46-.44V23.74l1-.68h1Zm0.1-.57v0.38l1.52-1H94.45Z" style="fill:#24a3ff"/><path d="M126.79,62.06h-4.44V52.2h4.44v9.86Zm-4.34-.1h4.23V52.3h-4.23V62Z" style="fill:#24a3ff"/><path d="M126.38,62.06h-1.26l-2.77-.88v-0.4Zm-1.23-.1h0.56l-3.25-1V61.1Zm-1.74.1h-1.05V61.73Zm-0.95-.1h0.28l-0.28-.09V62Zm4.34-.31-4.44-1.42v-0.4l4.44,1.42v0.4Zm-4.34-1.49,4.23,1.35V61.32L122.46,60v0.18Zm4.34,0.54-4.44-1.42v-0.4l4.44,1.42v0.4Zm-4.34-1.49,4.23,1.35V60.37L122.46,59V59.2Zm4.34,0.55-4.44-1.42v-0.4l4.44,1.42v0.4Zm-4.34-1.49,4.23,1.35V59.42l-4.23-1.35v0.18Zm4.34,0.54-4.44-1.42V57l4.44,1.42v0.4Zm-4.34-1.49,4.23,1.35V58.47l-4.23-1.35V57.3Zm4.34,0.54-4.44-1.42V56l4.44,1.42v0.4Zm-4.34-1.49,4.23,1.35V57.53l-4.23-1.35v0.18Zm4.34,0.54-4.44-1.42v-0.4l4.44,1.42v0.4Zm-4.34-1.49,4.23,1.35V56.58l-4.23-1.35v0.18ZM126.79,56l-4.44-1.42v-0.4l4.44,1.42V56Zm-4.34-1.49,4.23,1.35V55.63l-4.23-1.35v0.18ZM126.79,55l-4.44-1.42v-0.4l4.44,1.42V55Zm-4.34-1.49,4.23,1.35V54.68l-4.23-1.35v0.18Zm4.34,0.55-4.44-1.42v-0.4l4.44,1.42v0.4Zm-4.34-1.5,4.23,1.35V53.73l-4.23-1.35v0.18Zm4.34,0.54L124,52.2h1.26l1.57,0.5v0.4Zm-2.16-.8L126.69,53V52.78l-1.49-.48h-0.56Z" style="fill:#24a3ff"/><path d="M124.66,90.88H121V90h3.63v0.9Zm-3.53-.1h3.43V90.09h-3.43v0.69Z" style="fill:#24a3ff"/><path d="M122.81,90.29a1.39,1.39,0,1,1,1.34-1.39A1.36,1.36,0,0,1,122.81,90.29Zm0-2.67A1.28,1.28,0,1,0,124,88.9,1.26,1.26,0,0,0,122.81,87.61Z" style="fill:#24a3ff"/><path d="M107.66,82.31h-1.13V79.47h1.13v2.84Zm-1-.1h0.92V79.58h-0.92V82.2Z" style="fill:#24a3ff"/><path d="M105.1,82a2.54,2.54,0,0,1-1.25-.3,0.79,0.79,0,0,1,0-1.5,2.54,2.54,0,0,1,1.25-.3c1,0,1.78.47,1.78,1S106.09,82,105.1,82Zm0-2a2.43,2.43,0,0,0-1.2.29,0.69,0.69,0,0,0,0,1.32,2.43,2.43,0,0,0,1.2.29c0.92,0,1.67-.42,1.67-0.94S106,80,105.1,80Z" style="fill:#24a3ff"/><path d="M32.48,46.36H31.35V43.52h1.13v2.83Zm-1-.1h0.92V43.63H31.45v2.63Z" style="fill:#24a3ff"/><path d="M33.9,46c-1,0-1.78-.47-1.78-1s0.8-1,1.78-1,1.78,0.47,1.78,1S34.88,46,33.9,46Zm0-2c-0.92,0-1.67.42-1.67,0.95s0.75,0.94,1.67.94,1.67-.42,1.67-0.94S34.82,44,33.9,44Z" style="fill:#24a3ff"/><polygon points="42.48 37.9 42.48 37.8 63.15 36.8 70.25 25.8 70.34 25.86 63.21 36.9 63.18 36.9 42.48 37.9" style="fill:#24a3ff"/><rect x="63.9" y="47.73" width="0.1" height="17.1" style="fill:#24a3ff"/><rect x="64.73" y="47.75" width="0.1" height="17.03" style="fill:#24a3ff"/><rect x="65.56" y="47.77" width="0.1" height="16.96" style="fill:#24a3ff"/><rect x="66.29" y="47.76" width="0.1" height="16.85" style="fill:#24a3ff"/><rect x="67.02" y="47.75" width="0.1" height="16.82" style="fill:#24a3ff"/><rect x="67.75" y="47.74" width="0.1" height="16.79" style="fill:#24a3ff"/><rect x="68.48" y="47.73" width="0.1" height="16.78" style="fill:#24a3ff"/><rect x="69.21" y="47.72" width="0.1" height="16.73" style="fill:#24a3ff"/><rect x="69.94" y="47.71" width="0.1" height="16.64" style="fill:#24a3ff"/><rect x="70.67" y="47.7" width="0.1" height="16.61" style="fill:#24a3ff"/><rect x="71.4" y="47.79" width="0.1" height="16.51" style="fill:#24a3ff"/><rect x="72.13" y="47.78" width="0.1" height="16.47" style="fill:#24a3ff"/><rect x="72.85" y="47.77" width="0.1" height="16.35" style="fill:#24a3ff"/><rect x="73.58" y="47.76" width="0.1" height="16.32" style="fill:#24a3ff"/><rect x="74.31" y="47.7" width="0.1" height="16.37" style="fill:#24a3ff"/><polygon points="65.94 76.67 27.32 67.46 27.34 67.36 65.96 76.57 65.94 76.67" style="fill:#24a3ff"/><rect x="97.07" y="43.78" width="0.1" height="46.36" transform="translate(18.5 154.91) rotate(-82.79)" style="fill:#24a3ff"/><polygon points="115.23 70.65 69.08 64.45 69.09 64.34 115.25 70.55 115.23 70.65" style="fill:#24a3ff"/><polygon points="110.17 71.28 64.53 64.78 64.54 64.68 110.19 71.17 110.17 71.28" style="fill:#24a3ff"/><rect x="82.74" y="45.57" width="0.1" height="45.71" transform="translate(2.82 140.13) rotate(-81.46)" style="fill:#24a3ff"/><polygon points="105.42 73.15 56.31 65.38 56.33 65.28 105.44 73.04 105.42 73.15" style="fill:#24a3ff"/><rect x="77.9" y="44.06" width="0.1" height="51.5" transform="translate(-3.68 135.28) rotate(-80.57)" style="fill:#24a3ff"/><polygon points="99.28 74.64 49.07 65.9 49.08 65.8 99.3 74.53 99.28 74.64" style="fill:#24a3ff"/><rect x="70.42" y="45.35" width="0.1" height="50.45" transform="translate(-11.58 127.27) rotate(-79.69)" style="fill:#24a3ff"/><rect x="67.05" y="46.03" width="0.1" height="49.82" transform="translate(-15.12 123.62) rotate(-79.24)" style="fill:#24a3ff"/><polygon points="87.92 76.1 39.71 66.56 39.73 66.46 87.94 76 87.92 76.1" style="fill:#24a3ff"/><polygon points="78.01 75.22 36.9 66.75 36.92 66.64 78.03 75.11 78.01 75.22" style="fill:#24a3ff"/><polygon points="74.79 75.61 34.35 66.94 34.37 66.84 74.81 75.5 74.79 75.61" style="fill:#24a3ff"/><rect x="51.78" y="51.13" width="0.1" height="40.75" transform="translate(-29.22 106.58) rotate(-77.47)" style="fill:#24a3ff"/><rect x="49.15" y="51.63" width="0.1" height="40.28" transform="translate(-31.79 103.6) rotate(-77.03)" style="fill:#24a3ff"/><rect x="25.61" y="44.21" width="0.1" height="3.52" style="fill:#fff"/><rect x="26.39" y="44.21" width="0.1" height="3.54" style="fill:#fff"/><rect x="27.91" y="44.25" width="0.1" height="3.48" style="fill:#fff"/><rect x="28.68" y="44.25" width="0.1" height="3.5" style="fill:#fff"/><rect x="30.2" y="44.25" width="0.1" height="3.48" style="fill:#fff"/><rect x="30.97" y="44.25" width="0.1" height="3.5" style="fill:#fff"/><rect x="30.83" y="45.96" width="3.43" height="0.1" transform="matrix(0, -1, 1, 0, -13.63, 78.34)" style="fill:#fff"/><rect x="33.26" y="44.3" width="0.1" height="3.45" style="fill:#fff"/><rect x="33.12" y="45.96" width="3.43" height="0.1" transform="translate(-11.35 80.63) rotate(-89.72)" style="fill:#fff"/><rect x="35.55" y="44.3" width="0.1" height="3.45" style="fill:#fff"/><polygon points="37.17 47.73 37.07 47.73 37.07 44.35 37.18 44.35 37.17 47.73" style="fill:#fff"/><rect x="37.84" y="44.35" width="0.1" height="3.4" style="fill:#fff"/><polygon points="39.47 47.73 39.36 47.73 39.37 44.43 39.47 44.43 39.47 47.73" style="fill:#fff"/><rect x="40.14" y="44.43" width="0.1" height="3.32" style="fill:#fff"/><polygon points="41.76 47.73 41.65 47.73 41.66 44.43 41.76 44.43 41.76 47.73" style="fill:#fff"/><rect x="42.43" y="44.43" width="0.1" height="3.32" style="fill:#fff"/><polygon points="102.76 48.29 102.76 48.19 120.55 48.14 120.55 48.24 102.76 48.29" style="fill:#fff"/><polygon points="63.78 48.41 63.78 48.31 81.76 48.25 81.76 48.36 63.78 48.41" style="fill:#fff"/><polygon points="62.71 48.41 24.85 48.18 24.85 48.08 62.71 48.3 62.71 48.41" style="fill:#fff"/><polygon points="71.54 27.02 71.53 26.92 97.7 22.66 97.72 22.76 71.54 27.02" style="fill:#fff"/><rect x="72.83" y="26.49" width="23.48" height="0.1" transform="translate(-3.02 12.96) rotate(-8.61)" style="fill:#fff"/><polygon points="74.38 29.69 74.37 29.59 94.67 26.77 94.68 26.87 74.38 29.69" style="fill:#fff"/><polygon points="75.82 31.07 75.8 30.96 93.17 28.76 93.18 28.86 75.82 31.07" style="fill:#fff"/><polygon points="77.31 32.46 77.3 32.36 91.73 30.7 91.74 30.81 77.31 32.46" style="fill:#fff"/><rect x="78.77" y="33.2" width="11.54" height="0.1" transform="translate(-2.98 8.91) rotate(-5.93)" style="fill:#fff"/><polygon points="80.33 35.35 80.32 35.25 88.85 34.47 88.86 34.58 80.33 35.35" style="fill:#fff"/><polygon points="72.3 27.76 54.41 26.21 54.42 26.11 72.31 27.65 72.3 27.76" style="fill:#fff"/><polygon points="115.15 31.46 104.42 30.53 104.43 30.43 115.16 31.36 115.15 31.46" style="fill:#fff"/><rect x="65.32" y="19.92" width="0.1" height="17.82" transform="translate(31.48 91.72) rotate(-85.47)" style="fill:#fff"/><polygon points="116.72 32.94 105.38 32.05 105.39 31.94 116.72 32.84 116.72 32.94" style="fill:#fff"/><polygon points="76.1 31.35 58.55 30.09 58.56 29.99 76.11 31.25 76.1 31.35" style="fill:#fff"/><polygon points="118.23 34.38 106.25 33.52 106.25 33.42 118.23 34.28 118.23 34.38" style="fill:#fff"/><rect x="69.16" y="23.73" width="0.1" height="17.49" transform="matrix(0.06, -1, 1, 0.06, 32.33, 99.44)" style="fill:#fff"/><rect x="113.31" y="29.03" width="0.1" height="12.62" transform="matrix(0.06, -1, 1, 0.06, 70.77, 146.18)" style="fill:#fff"/><polygon points="79.81 34.87 62.5 33.87 62.5 33.77 79.82 34.76 79.81 34.87" style="fill:#fff"/><rect x="114.48" y="30.15" width="0.1" height="13.31" transform="translate(71.24 149.05) rotate(-86.72)" style="fill:#fff"/><rect x="34.58" y="34.36" width="0.1" height="18.85" transform="translate(-9.65 77.78) rotate(-89.17)" style="fill:#fff"/><rect x="34.53" y="34.91" width="0.21" height="18.85" transform="translate(-10.2 78.33) rotate(-89.17)" style="fill:#fff"/><polygon points="103.35 48.81 103.35 48.71 121.02 48.61 121.02 48.72 103.35 48.81" style="fill:#fff"/><rect x="64.44" y="48.88" width="17.93" height="0.1" transform="translate(-0.23 0.35) rotate(-0.28)" style="fill:#fff"/><polygon points="62.32 49.03 24.47 48.6 24.47 48.5 62.32 48.92 62.32 49.03" style="fill:#fff"/><rect x="103.89" y="49.15" width="17.62" height="0.1" transform="translate(-0.47 1.09) rotate(-0.55)" style="fill:#fff"/><rect x="65.07" y="49.47" width="17.89" height="0.1" transform="translate(-0.24 0.36) rotate(-0.28)" style="fill:#fff"/><polygon points="61.84 49.64 24.15 49.02 24.15 48.91 61.84 49.54 61.84 49.64" style="fill:#fff"/><polygon points="104.42 49.84 104.41 49.74 122 49.55 122 49.65 104.42 49.84" style="fill:#fff"/><polygon points="65.69 50.26 65.69 50.15 83.58 49.96 83.58 50.07 65.69 50.26" style="fill:#fff"/><polygon points="61.35 50.25 23.82 49.43 23.82 49.33 61.35 50.14 61.35 50.25" style="fill:#fff"/><polygon points="104.95 50.35 104.95 50.25 122.48 50.01 122.48 50.12 104.95 50.35" style="fill:#fff"/><polygon points="66.36 50.87 66.35 50.76 84.13 50.52 84.13 50.63 66.36 50.87" style="fill:#fff"/><rect x="42.15" y="31.6" width="0.1" height="37.38" transform="translate(-9.22 91.12) rotate(-88.45)" style="fill:#fff"/><polygon points="105.51 50.86 105.51 50.75 122.96 50.48 122.96 50.58 105.51 50.86" style="fill:#fff"/><polygon points="66.98 51.47 66.98 51.37 84.71 51.09 84.72 51.19 66.98 51.47" style="fill:#fff"/><polygon points="60.43 51.45 23.17 50.25 23.17 50.15 60.44 51.35 60.43 51.45" style="fill:#fff"/><rect x="106.01" y="51.1" width="17.44" height="0.1" transform="translate(-0.96 2.2) rotate(-1.1)" style="fill:#fff"/><rect x="67.62" y="51.81" width="17.69" height="0.1" transform="translate(-0.98 1.47) rotate(-1.1)" style="fill:#fff"/><rect x="41.35" y="32.74" width="0.1" height="37.11" transform="translate(-11.41 90.75) rotate(-87.85)" style="fill:#fff"/><polygon points="106.59 51.86 106.59 51.76 123.95 51.39 123.95 51.49 106.59 51.86" style="fill:#fff"/><polygon points="68.29 52.67 68.29 52.57 85.89 52.2 85.89 52.3 68.29 52.67" style="fill:#fff"/><polygon points="25.16 67.63 25.15 67.53 74.76 63.97 74.76 64.07 25.16 67.63" style="fill:#fff"/><path d="M111.31,26.52h0.19v1h-0.1V26.61h-0.15Z" style="fill:#fff"/><path d="M112.06,26.52h0.19v1h-0.1V26.61H112Z" style="fill:#fff"/><path d="M112.6,27a0.84,0.84,0,0,1,0-.3,0.35,0.35,0,0,1,.12-0.16,0.28,0.28,0,0,1,.17-0.05,0.29,0.29,0,0,1,.17.05,0.36,0.36,0,0,1,.12.16,1,1,0,0,1,0,.58,0.36,0.36,0,0,1-.12.16,0.29,0.29,0,0,1-.17.05,0.28,0.28,0,0,1-.17-0.05,0.35,0.35,0,0,1-.12-0.16A0.82,0.82,0,0,1,112.6,27Zm0.09,0a0.79,0.79,0,0,0,0,.25,0.27,0.27,0,0,0,.09.13,0.2,0.2,0,0,0,.12,0,0.19,0.19,0,0,0,.12,0,0.25,0.25,0,0,0,.08-0.13,0.75,0.75,0,0,0,0-.25,0.72,0.72,0,0,0,0-.24,0.28,0.28,0,0,0-.09-0.14,0.19,0.19,0,0,0-.24,0,0.27,0.27,0,0,0-.09.13A0.8,0.8,0,0,0,112.69,27Z" style="fill:#fff"/><path d="M113.51,27.34l0.06,0a0.08,0.08,0,0,1,0,.12l-0.06,0-0.06,0a0.08,0.08,0,0,1,0-.12Z" style="fill:#fff"/><path d="M114.63,26.5a0.5,0.5,0,0,1,.37.15,0.51,0.51,0,0,1-.36.87,0.5,0.5,0,0,1-.36-0.15,0.49,0.49,0,0,1-.15-0.36,0.52,0.52,0,0,1,.07-0.26A0.5,0.5,0,0,1,114.63,26.5Zm0,0.09a0.39,0.39,0,0,0-.2.06,0.41,0.41,0,0,0-.15.15,0.43,0.43,0,0,0-.05.21,0.41,0.41,0,0,0,.41.41,0.41,0.41,0,0,0,.21-0.05,0.39,0.39,0,0,0,.15-0.15A0.42,0.42,0,0,0,115,27a0.41,0.41,0,0,0-.05-0.21A0.42,0.42,0,0,0,114.63,26.59Z" style="fill:#fff"/><path d="M115.69,26.71l0,0a0.18,0.18,0,0,0-.15-0.07,0.17,0.17,0,0,0-.13,0,0.16,0.16,0,0,0-.05.12,0.17,0.17,0,0,0,0,.09,0.16,0.16,0,0,0,.06.06l0.09,0a0.18,0.18,0,0,0,.15-0.07l0,0a0.21,0.21,0,0,1-.08.07l-0.12,0a0.23,0.23,0,0,1-.16-0.06,0.2,0.2,0,0,1-.07-0.15,0.22,0.22,0,0,1,0-.11,0.22,0.22,0,0,1,.08-0.08,0.25,0.25,0,0,1,.12,0h0.08l0.07,0Z" style="fill:#fff"/><rect x="25.06" y="40.59" width="0.21" height="29.31" style="fill:#fff"/><rect x="29.91" y="54.86" width="0.1" height="7.56" style="fill:#fff"/><rect x="33.31" y="55.12" width="0.1" height="7.87" style="fill:#fff"/><rect x="43.97" y="37.3" width="0.21" height="35.97" style="fill:#fff"/><rect x="44.14" y="52.71" width="0.1" height="39.18" transform="translate(-36.59 97.87) rotate(-76.13)" style="fill:#fff"/><polygon points="88.06 76.32 81.06 74.89 81.1 74.68 88.1 76.11 88.06 76.32" style="fill:#fff"/><rect x="46.61" y="36.25" width="13.2" height="0.1" transform="translate(-3.45 5.66) rotate(-5.9)" style="fill:#fff"/><polygon points="25.12 43.71 25.12 43.61 44.03 42.68 44.04 42.79 25.12 43.71" style="fill:#fff"/><rect x="25.12" y="43.71" width="18.93" height="0.1" transform="translate(-2.01 1.67) rotate(-2.69)" style="fill:#fff"/><rect x="33.39" y="48.28" width="0.1" height="6.96" transform="translate(-19.83 82.74) rotate(-87.32)" style="fill:#fff"/><rect x="53.89" y="48.37" width="0.1" height="8.69" transform="translate(-1.24 104.13) rotate(-87.32)" style="fill:#fff"/><polygon points="102.97 46.15 90.3 46.05 90.3 45.94 102.97 46.04 102.97 46.15" style="fill:#fff"/><polygon points="118.41 45.59 107.24 45.46 107.24 45.35 118.41 45.48 118.41 45.59" style="fill:#fff"/><polygon points="102.89 45.41 90.34 45.26 90.34 45.15 102.89 45.3 102.89 45.41" style="fill:#fff"/><polygon points="78.5 44.7 66.29 44.56 66.29 44.45 78.5 44.6 78.5 44.7" style="fill:#fff"/><polygon points="78.91 45.12 65.81 44.97 65.81 44.87 78.91 45.02 78.91 45.12" style="fill:#fff"/><rect x="86.34" y="74.9" width="19.17" height="0.21" transform="translate(-9.05 13.3) rotate(-7.58)" style="fill:#fff"/><polygon points="100.48 77.56 100.46 77.46 105.53 76.61 105.54 76.72 100.48 77.56" style="fill:#fff"/><polygon points="87.57 79.72 87.56 79.62 94.64 78.43 94.66 78.53 87.57 79.72" style="fill:#fff"/><rect x="122.23" y="38.12" width="0.21" height="0.63" style="fill:#fff"/><polygon points="122.33 38.28 108.38 37.55 108.39 37.44 122.34 38.17 122.33 38.28" style="fill:#fff"/><rect x="72.5" y="27.04" width="0.1" height="17.17" transform="translate(33.19 106.21) rotate(-87.01)" style="fill:#fff"/><polygon points="122.33 38.8 105.45 37.96 105.46 37.75 122.34 38.59 122.33 38.8" style="fill:#fff"/><rect x="72.41" y="27.83" width="0.21" height="17.19" transform="translate(32.51 107.02) rotate(-87.13)" style="fill:#fff"/><rect x="58.08" y="21.68" width="0.21" height="15.99" transform="translate(-3.43 51.36) rotate(-46.41)" style="fill:#fff"/><rect x="65.87" y="46.56" width="0.21" height="7.67" transform="translate(-16.07 63.08) rotate(-46.16)" style="fill:#fff"/><rect x="83.56" y="46.59" width="0.21" height="7.17" transform="translate(-10.38 76.12) rotate(-46.37)" style="fill:#fff"/><rect x="104.56" y="46.76" width="0.21" height="6.4" transform="translate(-3.71 91.26) rotate(-46.38)" style="fill:#fff"/><rect x="122.09" y="46.81" width="0.21" height="5.84" transform="translate(1.92 103.93) rotate(-46.41)" style="fill:#fff"/><rect x="38.74" y="30.72" width="16.9" height="0.21" transform="matrix(0.62, -0.79, 0.79, 0.62, -6.17, 48.98)" style="fill:#fff"/><polygon points="42.5 38.01 41.88 37.53 42.01 37.37 42.46 37.72 52.45 24.94 63.85 35.81 63.86 35.2 64.07 35.2 64.04 36.28 52.48 25.25 42.5 38.01" style="fill:#fff"/><polygon points="42.48 37.94 42.46 37.83 44.08 37.63 44.09 37.73 42.48 37.94" style="fill:#fff"/><rect x="41.24" y="31.46" width="14.69" height="0.1" transform="translate(-6.13 50.47) rotate(-52.07)" style="fill:#fff"/><rect x="87.46" y="36.36" width="0.21" height="42.09" style="fill:#fff"/><rect x="81" y="35.99" width="0.21" height="38.81" style="fill:#fff"/><rect x="105.32" y="37.84" width="0.21" height="37.53" style="fill:#fff"/><rect x="120.01" y="38.58" width="0.21" height="31.78" style="fill:#fff"/><polygon points="58.24 67.4 49.56 65.9 49.58 65.8 58.26 67.3 58.24 67.4" style="fill:#fff"/><polygon points="36.95 63.72 29.95 62.51 29.96 62.41 36.97 63.62 36.95 63.72" style="fill:#fff"/><polygon points="108.67 63.68 108.66 63.58 116.39 62.94 116.4 63.05 108.67 63.68" style="fill:#fff"/><polygon points="67.44 67.06 67.43 66.95 76.21 66.23 76.22 66.34 67.44 67.06" style="fill:#fff"/><polygon points="111.39 55.73 111.39 55.63 118.61 55.33 118.61 55.43 111.39 55.73" style="fill:#fff"/><polygon points="111.39 54.8 111.39 54.69 118.63 54.45 118.63 54.56 111.39 54.8" style="fill:#fff"/><rect x="70.53" y="57.16" width="8.14" height="0.1" transform="matrix(1, -0.04, 0.04, 1, -2.36, 3.22)" style="fill:#fff"/><rect x="70.53" y="56.07" width="8.14" height="0.1" transform="translate(-2.06 2.85) rotate(-2.16)" style="fill:#fff"/><polygon points="108.58 52.16 108.58 52.06 116.02 51.89 116.02 52 108.58 52.16" style="fill:#fff"/><rect x="67.44" y="52.9" width="8.26" height="0.1" transform="translate(-1.2 1.66) rotate(-1.32)" style="fill:#fff"/><polygon points="58.26 66.83 49.62 65.41 49.63 65.31 58.27 66.72 58.26 66.83" style="fill:#fff"/><polygon points="36.97 62.91 29.95 61.76 29.96 61.66 36.99 62.81 36.97 62.91" style="fill:#fff"/><path d="M34.51,55.3l-6.84-.58v-0.1l6.84,0.58v0.1Z" style="fill:#fff"/><polygon points="87.54 73.07 81.11 71.93 81.13 71.83 87.56 72.97 87.54 73.07" style="fill:#fff"/><rect x="81.07" y="36.5" width="6.54" height="0.21" transform="translate(-2.52 6.47) rotate(-4.33)" style="fill:#fff"/><rect x="70.12" y="23.33" width="29.03" height="0.21" transform="matrix(0.99, -0.17, 0.17, 0.99, -2.72, 14.45)" style="fill:#fff"/><rect x="63.12" y="75.83" width="18.01" height="0.1" transform="translate(-8.7 9.34) rotate(-6.99)" style="fill:#fff"/><rect x="105.31" y="70.71" width="16.46" height="0.21" transform="translate(-7.78 14.35) rotate(-6.99)" style="fill:#fff"/><polygon points="87.56 73.08 87.55 72.98 105.41 70.88 105.42 70.98 87.56 73.08" style="fill:#fff"/><rect x="63.15" y="72.8" width="17.99" height="0.1" transform="translate(-7.48 8.26) rotate(-6.23)" style="fill:#fff"/><polygon points="105.45 69.28 105.44 69.18 120.12 67.58 120.13 67.68 105.45 69.28" style="fill:#fff"/><rect x="69.45" y="24.91" width="0.21" height="1.73" transform="translate(37.4 92.62) rotate(-84.65)" style="fill:#fff"/><polygon points="103.59 29.03 70.36 25.94 70.37 25.83 103.6 28.92 103.59 29.03" style="fill:#24a3ff"/><rect x="109.53" y="23.47" width="0.21" height="12.13" transform="matrix(0.09, -1, 1, 0.09, 70.08, 135.96)" style="fill:#fff"/><path d="M108.68,37.62l-1.93-.11,0,0-8-13.61L89.34,36.29l-2.1.2L98.83,21l-1.54-2.66,0.18-.1L99,20.83l1.67-2.23,0.17,0.13L99.08,21Zm-1.81-.31,1.43,0.08L98.94,21.21l-11.25,15,1.54-.14,9.55-12.62Z" style="fill:#fff"/><polygon points="105.41 37.95 105.39 37.92 97.78 24.91 97.87 24.86 105.46 37.84 108.5 37.45 108.51 37.55 105.41 37.95" style="fill:#fff"/><polygon points="46.72 45.37 46.72 45.27 59.75 44.95 59.75 45.05 46.72 45.37" style="fill:#fff"/><polygon points="80.66 36.09 80.65 35.99 88.26 35.3 88.27 35.4 80.66 36.09" style="fill:#fff"/><polygon points="34.52 54.43 27.63 53.92 27.64 53.82 34.52 54.32 34.52 54.43" style="fill:#fff"/><polygon points="27.64 53.95 27.57 53.87 29.92 51.61 29.99 51.69 27.64 53.95" style="fill:#fff"/><polygon points="34.55 54.4 34.48 54.33 36.89 51.89 36.96 51.96 34.55 54.4" style="fill:#fff"/><rect x="36.89" y="51.93" width="0.1" height="11.69" style="fill:#fff"/><rect x="46.64" y="36.97" width="0.1" height="8.4" style="fill:#fff"/><rect x="59.7" y="35.57" width="0.1" height="9.48" style="fill:#fff"/><rect x="55.15" y="36.08" width="0.1" height="9.07" style="fill:#fff"/><rect x="50.74" y="36.5" width="0.1" height="8.71" style="fill:#fff"/><rect x="78.45" y="38.5" width="0.1" height="6.14" style="fill:#fff"/><rect x="78.87" y="38.07" width="0.1" height="6.99" style="fill:#fff"/><rect x="66.23" y="37.96" width="0.1" height="6.55" style="fill:#fff"/><rect x="65.81" y="37.5" width="0.1" height="7.42" style="fill:#fff"/><rect x="70.36" y="37.73" width="0.1" height="7.23" style="fill:#fff"/><rect x="74.77" y="37.9" width="0.1" height="7.14" style="fill:#fff"/><rect x="118.3" y="39.77" width="0.1" height="5.76" style="fill:#fff"/><rect x="107.21" y="39.3" width="0.1" height="6.16" style="fill:#fff"/><rect x="111.07" y="39.45" width="0.1" height="6" style="fill:#fff"/><rect x="114.82" y="39.61" width="0.1" height="5.86" style="fill:#fff"/><rect x="102.87" y="38.35" width="0.1" height="7.71" style="fill:#fff"/><rect x="90.28" y="37.81" width="0.1" height="8.22" style="fill:#fff"/><rect x="94.67" y="37.98" width="0.1" height="8.01" style="fill:#fff"/><rect x="98.92" y="38.2" width="0.1" height="7.87" style="fill:#fff"/><rect x="27.6" y="53.84" width="0.1" height="0.83" style="fill:#fff"/><polygon points="34.56 55.24 34.46 55.24 34.46 54.35 34.56 54.35 34.56 55.24" style="fill:#fff"/><rect x="34.5" y="54.31" width="2.42" height="0.1" transform="translate(-2.28 1.57) rotate(-2.43)" style="fill:#fff"/><polygon points="34.51 55.3 34.51 55.19 36.92 55.08 36.93 55.19 34.51 55.3" style="fill:#fff"/><rect x="49.57" y="52.54" width="0.1" height="13.31" style="fill:#fff"/><rect x="53.78" y="56.82" width="0.1" height="9.73" style="fill:#fff"/><path d="M55.24,57l-8.46-.71v-0.1l8.46,0.71V57Z" style="fill:#fff"/><polygon points="55.25 55.95 46.74 55.33 46.74 55.22 55.26 55.84 55.25 55.95" style="fill:#fff"/><polygon points="46.75 55.36 46.68 55.28 49.58 52.48 49.65 52.56 46.75 55.36" style="fill:#fff"/><polygon points="55.29 55.92 55.22 55.84 58.25 52.83 58.32 52.9 55.29 55.92" style="fill:#fff"/><rect x="58.2" y="52.87" width="0.1" height="14.53" style="fill:#fff"/><rect x="46.72" y="55.24" width="0.1" height="1.03" style="fill:#fff"/><polygon points="55.3 56.97 55.2 56.97 55.2 55.87 55.3 55.87 55.3 56.97" style="fill:#fff"/><rect x="55.24" y="55.83" width="3" height="0.1" transform="translate(-2.3 2.44) rotate(-2.41)" style="fill:#fff"/><polygon points="55.25 57.02 55.25 56.92 58.23 56.78 58.24 56.89 55.25 57.02" style="fill:#fff"/><rect x="76.12" y="57.1" width="0.1" height="10.21" style="fill:#fff"/><rect x="71.97" y="57.33" width="0.1" height="10.29" style="fill:#fff"/><rect x="77.11" y="52.27" width="0.1" height="4.32" transform="translate(-16.15 68.95) rotate(-44.04)" style="fill:#fff"/><polygon points="70.52 56.34 67.39 53.07 67.47 53 70.59 56.27 70.52 56.34" style="fill:#fff"/><rect x="67.39" y="53.05" width="0.1" height="15.03" style="fill:#fff"/><rect x="68.96" y="54.66" width="0.1" height="3.11" transform="translate(9.9 122.75) rotate(-87.55)" style="fill:#fff"/><polygon points="70.55 57.44 67.45 57.3 67.46 57.19 70.56 57.33 70.55 57.44" style="fill:#fff"/><polygon points="122.29 38.32 113.57 29.97 113.72 29.82 122.44 38.17 122.29 38.32" style="fill:#fff"/><polygon points="108.61 64.53 108.6 64.43 116.39 63.76 116.39 63.86 108.61 64.53" style="fill:#fff"/><polygon points="67.44 68.08 67.43 67.98 76.18 67.23 76.19 67.33 67.44 68.08" style="fill:#fff"/><rect x="75.63" y="23.56" width="0.21" height="14.82" transform="translate(1.08 64.47) rotate(-46.41)" style="fill:#fff"/><path d="M52.94,34.17a0.84,0.84,0,0,1-.38-0.1c-0.71-.36-1.12-1.67-0.91-2.91,0.17-1,.71-1.72,1.31-1.72a0.84,0.84,0,0,1,.38.1c0.71,0.36,1.12,1.67.91,2.91C54.08,33.46,53.54,34.17,52.94,34.17Zm0-4.62c-0.55,0-1.05.67-1.21,1.63-0.2,1.2.18,2.46,0.85,2.8a0.74,0.74,0,0,0,.33.08c0.55,0,1.05-.67,1.21-1.63,0.2-1.2-.18-2.46-0.85-2.8A0.74,0.74,0,0,0,53,29.55Z" style="fill:#fff"/><rect x="78.62" y="55.98" width="0.1" height="1.11" style="fill:#fff"/><polygon points="70.49 57.43 70.49 56.27 70.59 56.27 70.59 57.43 70.49 57.43" style="fill:#fff"/><rect x="116.35" y="55.45" width="0.1" height="8.34" style="fill:#fff"/><rect x="112.66" y="55.55" width="0.1" height="8.58" style="fill:#fff"/><polygon points="118.61 54.59 115.91 51.94 115.98 51.87 118.68 54.51 118.61 54.59" style="fill:#fff"/><rect x="109.97" y="51.55" width="0.1" height="3.81" transform="translate(-4.73 95.79) rotate(-46.16)" style="fill:#fff"/><rect x="108.59" y="52.13" width="0.1" height="12.35" style="fill:#fff"/><rect x="109.97" y="53.33" width="0.1" height="2.75" transform="translate(50.16 162) rotate(-87.27)" style="fill:#fff"/><polygon points="111.4 55.75 108.65 55.63 108.65 55.52 111.41 55.65 111.4 55.75" style="fill:#fff"/><rect x="118.56" y="54.51" width="0.1" height="0.93" style="fill:#fff"/><polygon points="111.34 55.74 111.34 54.77 111.44 54.77 111.44 55.74 111.34 55.74" style="fill:#fff"/><polygon points="118.33 39.83 107.22 39.36 107.23 39.25 118.34 39.73 118.33 39.83" style="fill:#fff"/><polygon points="102.91 39.17 90.34 38.63 90.34 38.53 102.92 39.07 102.91 39.17" style="fill:#fff"/><rect x="72.36" y="32.11" width="0.1" height="12.23" transform="translate(31.11 108.92) rotate(-87.54)" style="fill:#fff"/><rect x="72.35" y="31.28" width="0.1" height="13.06" transform="translate(31.52 108.52) rotate(-87.54)" style="fill:#fff"/><rect x="96.56" y="31.74" width="0.1" height="12.66" transform="translate(54.09 132.8) rotate(-87.34)" style="fill:#fff"/><rect x="20.95" y="47.63" width="102.24" height="0.21" style="fill:#fff"/><polygon points="90.16 56.62 90.15 56.41 102.81 55.91 102.82 56.12 90.16 56.62" style="fill:#fff"/><rect x="96.78" y="51.22" width="0.21" height="24.69" style="fill:#fff"/><rect x="90.04" y="56.49" width="0.21" height="19.27" style="fill:#fff"/><polygon points="89.52 75.87 89.31 75.87 89.31 56.46 90.98 56.38 90.98 75.66 90.77 75.66 90.77 56.6 89.52 56.66 89.52 75.87" style="fill:#fff"/><rect x="102.72" y="56.01" width="0.21" height="18.13" style="fill:#fff"/><polygon points="101.99 74.19 101.98 55.91 103.65 55.91 103.65 73.99 103.45 73.99 103.44 56.12 102.19 56.12 102.2 74.19 101.99 74.19" style="fill:#fff"/><path d="M90.23,56.53l-0.21,0a6.54,6.54,0,0,1,6.53-5.34h0.09c4,0.05,6.06,2.83,6.27,4.79l-0.21,0c-0.19-1.88-2.2-4.55-6.06-4.6H96.55A6.32,6.32,0,0,0,90.23,56.53Z" style="fill:#fff"/><path d="M91,56.59H89.31V56.48a6.21,6.21,0,0,1,2.14-4,7.67,7.67,0,0,1,10.28,0,6.08,6.08,0,0,1,1.93,3.6v0.11l-1.68,0V56a4.2,4.2,0,0,0-1.37-2.45,5.75,5.75,0,0,0-4-1.48H96.55A5.59,5.59,0,0,0,91,56.5v0.09Zm-0.82-.21h0.64a5.83,5.83,0,0,1,5.77-4.48h0.08a6,6,0,0,1,4.11,1.54,4.49,4.49,0,0,1,1.43,2.49h1.26a5.94,5.94,0,0,0-1.85-3.36,7.13,7.13,0,0,0-4.93-1.91h-0.1a7.14,7.14,0,0,0-5,1.93,6.1,6.1,0,0,0-2.07,3.79h0.61Z" style="fill:#fff"/><polygon points="96.59 56.53 99.5 51.86 99.67 51.97 97.16 56.01 101.78 53.65 101.88 53.83 96.59 56.53" style="fill:#fff"/><polygon points="97.16 56.48 90.97 54.32 91.04 54.12 96.59 56.06 93.56 51.95 93.73 51.83 97.16 56.48" style="fill:#fff"/><rect x="25.9" y="44.13" width="0.1" height="3.61" style="fill:#fff"/><rect x="27.38" y="44.04" width="0.1" height="3.69" style="fill:#fff"/><rect x="28.16" y="44.04" width="0.1" height="3.71" style="fill:#fff"/><rect x="29.65" y="43.95" width="0.1" height="3.83" style="fill:#fff"/><rect x="30.42" y="43.95" width="0.1" height="3.84" style="fill:#fff"/><rect x="31.9" y="43.89" width="0.1" height="3.88" style="fill:#fff"/><rect x="32.67" y="43.89" width="0.1" height="3.88" style="fill:#fff"/><rect x="34.16" y="43.77" width="0.1" height="4.03" style="fill:#fff"/><rect x="34.93" y="43.77" width="0.1" height="4.03" style="fill:#fff"/><rect x="36.42" y="43.65" width="0.1" height="4.11" style="fill:#fff"/><rect x="37.19" y="43.65" width="0.1" height="4.12" style="fill:#fff"/><rect x="38.68" y="43.54" width="0.1" height="4.2" style="fill:#fff"/><rect x="39.45" y="43.54" width="0.1" height="4.25" style="fill:#fff"/><rect x="40.94" y="43.48" width="0.1" height="4.29" style="fill:#fff"/><rect x="41.71" y="43.44" width="0.1" height="4.34" style="fill:#fff"/><rect x="43.2" y="43.37" width="0.1" height="4.3" style="fill:#fff"/><rect x="105.38" y="37.59" width="1.47" height="0.1" transform="translate(-6.44 34.6) rotate(-17.98)" style="fill:#fff"/><rect x="63.05" y="35.33" width="0.31" height="44.27" style="fill:#fff"/><rect x="62.13" y="27.23" width="0.21" height="4.73" transform="translate(-2.11 54.26) rotate(-46.41)" style="fill:#fff"/><rect x="58.19" y="50.09" width="6.22" height="0.21" transform="translate(-15.99 67.63) rotate(-52.03)" style="fill:#fff"/><polygon points="22.66 51.11 22.5 50.99 25.06 47.68 25.23 47.81 22.66 51.11" style="fill:#fff"/><rect x="57.7" y="56.85" width="0.1" height="10.4" style="fill:#fff"/><rect x="49.99" y="56.53" width="0.1" height="9.46" style="fill:#fff"/><rect x="53.32" y="56.79" width="0.1" height="9.77" style="fill:#fff"/><rect x="74.44" y="37.89" width="0.1" height="7.14" style="fill:#fff"/><rect x="69.94" y="37.73" width="0.1" height="7.23" style="fill:#fff"/><polygon points="122.33 38.8 105.39 38.05 105.39 37.84 122.34 38.59 122.33 38.8" style="fill:#fff"/><polygon points="104.94 41.7 80.59 40.63 80.59 40.42 104.94 41.49 104.94 41.7" style="fill:#fff"/><rect x="36.42" y="55.16" width="0.1" height="8.46" style="fill:#fff"/><rect x="30.35" y="54.87" width="0.1" height="7.73" style="fill:#fff"/><rect x="32.88" y="55.09" width="0.1" height="7.86" style="fill:#fff"/><rect x="67.98" y="53.01" width="0.1" height="14.98" style="fill:#fff"/><rect x="72.38" y="52.96" width="0.1" height="14.63" style="fill:#fff"/><rect x="75.7" y="57.14" width="0.09" height="10.27" style="fill:#fff"/><rect x="68.59" y="24.53" width="0.21" height="7.11" style="fill:#fff"/><rect x="69.28" y="22.66" width="0.31" height="2.04" style="fill:#fff"/><rect x="60.42" y="24.62" width="0.21" height="3.4" style="fill:#fff"/><polygon points="59.95 24.79 59.75 24.79 59.75 22.79 59.96 22.79 59.95 24.79" style="fill:#fff"/><rect x="106.86" y="51.87" width="17.43" height="0.21" transform="translate(-1.19 2.74) rotate(-1.35)" style="fill:#fff"/><rect x="68.71" y="52.75" width="17.53" height="0.21" transform="translate(-1.1 1.64) rotate(-1.21)" style="fill:#fff"/><rect x="60.33" y="75.96" width="20.87" height="0.21" transform="translate(-8.73 9.18) rotate(-6.99)" style="fill:#fff"/><rect x="44.11" y="46.2" width="0.1" height="52.16" transform="translate(-36.61 97.81) rotate(-76.12)" style="fill:#fff"/><rect x="65.88" y="50.12" width="0.21" height="5.52" transform="translate(9.1 115.44) rotate(-86.43)" style="fill:#fff"/><polygon points="59.39 52.75 19.3 51.01 19.31 50.8 59.4 52.54 59.39 52.75" style="fill:#fff"/><rect x="44.14" y="50.14" width="0.1" height="38.97" transform="translate(-33.32 97.8) rotate(-77.57)" style="fill:#fff"/><rect x="63.84" y="24.08" width="0.21" height="7.25" style="fill:#fff"/><rect x="63.39" y="22.1" width="0.21" height="1.96" style="fill:#fff"/><rect x="51.64" y="15.35" width="0.21" height="17.57" transform="translate(22.95 73.43) rotate(-84.71)" style="fill:#fff"/><rect x="66.37" y="21.35" width="0.21" height="6" transform="translate(35.8 88.16) rotate(-84.44)" style="fill:#fff"/><rect x="66.36" y="19.41" width="0.21" height="5.99" transform="translate(37.22 86.15) rotate(-83.98)" style="fill:#fff"/><rect x="66.22" y="29.04" width="0.21" height="4.76" transform="translate(30.62 95.54) rotate(-86.23)" style="fill:#fff"/><rect x="59.74" y="22.38" width="3.8" height="0.21" transform="translate(-3.35 13.47) rotate(-12.14)" style="fill:#fff"/><polygon points="59.79 24.9 59.75 24.69 63.48 23.96 63.52 24.16 59.79 24.9" style="fill:#fff"/><path d="M110.43,29h-0.1a6.8,6.8,0,0,0-6.79-6.79,6.72,6.72,0,0,0-3.05.72l0-.09a6.82,6.82,0,0,1,3.1-.74A6.9,6.9,0,0,1,110.43,29Z" style="fill:#fff"/><path d="M110.39,29l0-.06a0.87,0.87,0,0,0-.3-0.23l0-.1a0.94,0.94,0,0,1,.29.21,0.5,0.5,0,0,1,.31-0.21v0.1a0.47,0.47,0,0,0-.27.22Z" style="fill:#fff"/><path d="M100.71,23.08a0.47,0.47,0,0,0-.31-0.16h-0.07l0-.07a0.89,0.89,0,0,0,.08-0.37h0.1a0.91,0.91,0,0,1-.06.35,0.5,0.5,0,0,1,.32.19Z" style="fill:#fff"/><rect x="97.71" y="25.49" width="0.1" height="2.25" transform="translate(61.33 121.16) rotate(-84.16)" style="fill:#fff"/><polygon points="100.28 29.15 95.01 28.67 95.02 28.56 100.29 29.05 100.28 29.15" style="fill:#fff"/><polygon points="101.62 31.48 93.41 30.82 93.42 30.71 101.63 31.37 101.62 31.48" style="fill:#fff"/><polygon points="103.04 33.77 91.75 32.99 91.76 32.89 103.05 33.67 103.04 33.77" style="fill:#fff"/><polygon points="104.33 36.03 90.06 35.2 90.07 35.09 104.34 35.93 104.33 36.03" style="fill:#fff"/><rect x="96.47" y="28.84" width="0.1" height="17.86" transform="matrix(0.05, -1, 1, 0.05, 54.18, 132.38)" style="fill:#fff"/><rect x="88.88" y="38.36" width="0.1" height="2.76" transform="translate(45.94 127.14) rotate(-87.88)" style="fill:#fff"/><rect x="104.14" y="39.04" width="0.1" height="2.53" transform="translate(60.07 142.94) rotate(-87.88)" style="fill:#fff"/><polygon points="90.34 44.47 87.58 44.42 87.58 44.32 90.34 44.36 90.34 44.47" style="fill:#fff"/><polygon points="105.43 44.7 102.93 44.66 102.93 44.55 105.43 44.59 105.43 44.7" style="fill:#fff"/><polygon points="90.3 42.18 87.59 42.12 87.6 42.01 90.3 42.08 90.3 42.18" style="fill:#fff"/><polygon points="105.43 42.55 102.93 42.49 102.93 42.39 105.43 42.45 105.43 42.55" style="fill:#fff"/><polygon points="105.42 46.84 87.58 46.77 87.58 46.66 105.42 46.74 105.42 46.84" style="fill:#fff"/><polygon points="87.56 49.1 87.56 49 105.42 48.88 105.42 48.99 87.56 49.1" style="fill:#fff"/><rect x="87.57" y="51.29" width="5.64" height="0.1" transform="matrix(1, -0.02, 0.02, 1, -0.92, 1.65)" style="fill:#fff"/><rect x="99.75" y="51.08" width="5.7" height="0.1" transform="translate(-0.93 1.91) rotate(-1.06)" style="fill:#fff"/><rect x="87.58" y="53.64" width="2.92" height="0.1" transform="matrix(1, -0.02, 0.02, 1, -0.96, 1.63)" style="fill:#fff"/><rect x="102.41" y="53.22" width="3.03" height="0.1" transform="translate(-1.49 3) rotate(-1.64)" style="fill:#fff"/><rect x="87.54" y="55.99" width="1.94" height="0.1" transform="translate(-2.06 3.39) rotate(-2.17)" style="fill:#fff"/><polygon points="103.47 55.51 103.46 55.41 105.47 55.33 105.47 55.43 103.47 55.51" style="fill:#fff"/><polygon points="87.54 58.48 87.54 58.37 89.42 58.28 89.43 58.38 87.54 58.48" style="fill:#fff"/><polygon points="103.57 57.68 103.56 57.57 105.44 57.48 105.44 57.58 103.57 57.68" style="fill:#fff"/><polygon points="87.59 60.82 87.59 60.72 89.43 60.6 89.44 60.71 87.59 60.82" style="fill:#fff"/><polygon points="103.57 59.85 103.56 59.74 105.43 59.63 105.44 59.74 103.57 59.85" style="fill:#fff"/><polygon points="87.56 63.18 87.55 63.07 89.43 62.94 89.44 63.04 87.56 63.18" style="fill:#fff"/><polygon points="103.56 62.03 103.55 61.92 105.48 61.78 105.49 61.89 103.56 62.03" style="fill:#fff"/><polygon points="87.6 65.53 87.59 65.42 89.44 65.27 89.45 65.37 87.6 65.53" style="fill:#fff"/><polygon points="103.56 64.21 103.55 64.1 105.44 63.95 105.45 64.05 103.56 64.21" style="fill:#fff"/><rect x="87.56" y="67.7" width="1.86" height="0.1" transform="translate(-5.94 8.55) rotate(-5.35)" style="fill:#fff"/><polygon points="103.58 66.39 103.58 66.28 105.44 66.11 105.45 66.21 103.58 66.39" style="fill:#fff"/><rect x="87.57" y="70.05" width="1.85" height="0.1" transform="translate(-6.81 9.58) rotate(-5.97)" style="fill:#fff"/><rect x="103.56" y="68.37" width="1.93" height="0.1" transform="translate(-6.54 11.22) rotate(-5.96)" style="fill:#fff"/><polygon points="87.58 72.62 87.57 72.51 89.43 72.3 89.44 72.4 87.58 72.62" style="fill:#fff"/><polygon points="103.56 70.77 103.55 70.67 105.51 70.44 105.52 70.54 103.56 70.77" style="fill:#fff"/><polygon points="87.58 74.99 87.56 74.89 89.42 74.65 89.43 74.76 87.58 74.99" style="fill:#fff"/><polygon points="103.56 72.97 103.55 72.87 105.51 72.62 105.52 72.72 103.56 72.97" style="fill:#fff"/><rect x="61.21" y="50.73" width="0.21" height="3.81" transform="translate(8.25 113.58) rotate(-89.6)" style="fill:#fff"/><polygon points="123.36 69.64 123.35 69.53 125.16 69.33 125.16 38.8 123.28 38.8 123.28 38.7 125.26 38.7 125.26 69.42 123.36 69.64" style="fill:#fff"/><polygon points="63.15 81.64 44.93 77.02 44.96 76.92 63.17 81.54 63.15 81.64" style="fill:#fff"/><polygon points="38.49 75.39 25.18 72.01 25.21 71.91 38.52 75.28 38.49 75.39" style="fill:#fff"/><path d="M126.7,51.73V51.64a0.31,0.31,0,0,1,.22.09,0.28,0.28,0,0,1,.09.21,0.27,0.27,0,0,1-.08.2,0.26,0.26,0,0,1-.19.08,0.29,0.29,0,0,1-.14,0,1,1,0,0,1-.18-0.14l-0.24-.22v0.41h-0.09V51.62L126.45,52l0.17,0.14a0.22,0.22,0,0,0,.11,0,0.18,0.18,0,0,0,.13-0.06,0.2,0.2,0,0,0,0-.28A0.25,0.25,0,0,0,126.7,51.73Z" style="fill:#fff"/><path d="M126.53,52.31a0.78,0.78,0,0,1,.27,0,0.32,0.32,0,0,1,.15.11,0.26,0.26,0,0,1,.05.16,0.27,0.27,0,0,1-.05.16,0.33,0.33,0,0,1-.15.11,0.9,0.9,0,0,1-.54,0,0.34,0.34,0,0,1-.15-0.11,0.26,0.26,0,0,1-.05-0.16,0.26,0.26,0,0,1,0-.16,0.31,0.31,0,0,1,.15-0.11A0.76,0.76,0,0,1,126.53,52.31Zm0,0.08a0.73,0.73,0,0,0-.23,0,0.24,0.24,0,0,0-.12.08,0.19,0.19,0,0,0,0,.11,0.18,0.18,0,0,0,0,.11,0.23,0.23,0,0,0,.12.08,0.83,0.83,0,0,0,.45,0,0.27,0.27,0,0,0,.13-0.08,0.18,0.18,0,0,0,0-.22,0.25,0.25,0,0,0-.12-0.08A0.73,0.73,0,0,0,126.53,52.4Z" style="fill:#fff"/><path d="M126.66,53.18l0,0,0.07,0h0.07V53.12H127v0.11h-0.23Z" style="fill:#fff"/><path d="M126.66,53.62l0,0,0.07,0h0.07V53.56H127v0.11h-0.23Z" style="fill:#fff"/><path d="M126.45,54.23v0.33h-0.07V54.23h0.07Z" style="fill:#fff"/><path d="M127,55.18v0.18h-0.9V55.27h0.81V55.13Z" style="fill:#fff"/><path d="M126.7,55.79V55.7a0.3,0.3,0,0,1,.22.09A0.28,0.28,0,0,1,127,56a0.26,0.26,0,0,1-.08.2,0.26,0.26,0,0,1-.19.08,0.29,0.29,0,0,1-.14,0,1,1,0,0,1-.18-0.14l-0.24-.22v0.41h-0.09V55.68L126.45,56l0.17,0.14a0.21,0.21,0,0,0,.11,0,0.18,0.18,0,0,0,.13-0.06,0.19,0.19,0,0,0,.05-0.14,0.2,0.2,0,0,0-.06-0.14A0.24,0.24,0,0,0,126.7,55.79Z" style="fill:#fff"/><path d="M126.66,56.55l0,0,0.07,0h0.07V56.49H127V56.6h-0.23Z" style="fill:#fff"/><path d="M126.66,57l0,0,0.07,0h0.07V56.93H127V57h-0.23Z" style="fill:#fff"/><path d="M95,78.24l-0.08,0A0.31,0.31,0,0,1,95,78a0.29,0.29,0,0,1,.19-0.12,0.27,0.27,0,0,1,.32.22,0.29,0.29,0,0,1,0,.15,0.94,0.94,0,0,1-.11.2l-0.18.28,0.41-.07,0,0.09-0.6.11,0.27-.42a1,1,0,0,0,.1-0.19,0.22,0.22,0,0,0,0-.12A0.18,0.18,0,0,0,95.32,78a0.2,0.2,0,0,0-.28.05A0.25,0.25,0,0,0,95,78.24Z" style="fill:#fff"/><path d="M95.73,77.83l0.17,0,0.16,0.88L96,78.7l-0.14-.8-0.14,0Z" style="fill:#fff"/><path d="M96.44,78l-0.05,0,0-.08a0.32,0.32,0,0,0,0-.07H96.36l0-.17,0.11,0,0,0.1a0.52,0.52,0,0,1,0,.12A0.49,0.49,0,0,1,96.44,78Z" style="fill:#fff"/><path d="M96.88,77.94l-0.05,0,0-.08a0.41,0.41,0,0,0,0-.07H96.79l0-.17,0.11,0,0,0.1a0.57,0.57,0,0,1,0,.12A0.54,0.54,0,0,1,96.88,77.94Z" style="fill:#fff"/><path d="M97.52,78L97.85,78v0.07l-0.33.06V78Z" style="fill:#fff"/><path d="M98.36,77.36l0.17,0,0.16,0.88-0.09,0-0.14-.8-0.14,0Z" style="fill:#fff"/><path d="M98.94,77.72a0.78,0.78,0,0,1,0-.28A0.33,0.33,0,0,1,99,77.28a0.26,0.26,0,0,1,.15-0.08,0.27,0.27,0,0,1,.16,0,0.33,0.33,0,0,1,.14.13,0.92,0.92,0,0,1,.09.53,0.33,0.33,0,0,1-.08.17,0.27,0.27,0,0,1-.15.08,0.26,0.26,0,0,1-.16,0A0.32,0.32,0,0,1,99,78,0.76,0.76,0,0,1,98.94,77.72Zm0.08,0a0.76,0.76,0,0,0,.07.22,0.25,0.25,0,0,0,.1.1,0.18,0.18,0,0,0,.22,0,0.25,0.25,0,0,0,.06-0.13,0.82,0.82,0,0,0-.08-0.45,0.26,0.26,0,0,0-.1-0.11,0.18,0.18,0,0,0-.12,0,0.18,0.18,0,0,0-.1.06,0.25,0.25,0,0,0-.06.13A0.75,0.75,0,0,0,99,77.71Z" style="fill:#fff"/><path d="M99.76,77.43l-0.05,0,0-.08a0.32,0.32,0,0,0,0-.07H99.68l0-.17,0.11,0,0,0.1a0.52,0.52,0,0,1,0,.12A0.44,0.44,0,0,1,99.76,77.43Z" style="fill:#fff"/><path d="M100.2,77.36l-0.05,0,0-.08a0.42,0.42,0,0,0,0-.07h-0.05l0-.17,0.11,0,0,0.1a0.57,0.57,0,0,1,0,.12A0.54,0.54,0,0,1,100.2,77.36Z" style="fill:#fff"/><path d="M39.21,75.33l-0.08,0a0.31,0.31,0,0,1,.14-0.19,0.28,0.28,0,0,1,.23,0,0.27,0.27,0,0,1,.2.33,0.3,0.3,0,0,1-.07.13,1,1,0,0,1-.18.14l-0.28.17L39.56,76l0,0.08-0.59-.16,0.43-.27,0.17-.12a0.23,0.23,0,0,0,.06-0.1,0.18,0.18,0,0,0,0-.14,0.19,0.19,0,0,0-.12-0.09,0.19,0.19,0,0,0-.15,0A0.25,0.25,0,0,0,39.21,75.33Z" style="fill:#fff"/><path d="M39.74,75.65a0.78,0.78,0,0,1,.11-0.26A0.32,0.32,0,0,1,40,75.28a0.26,0.26,0,0,1,.16,0,0.26,0.26,0,0,1,.14.09,0.33,0.33,0,0,1,.07.17,0.74,0.74,0,0,1,0,.27,0.72,0.72,0,0,1-.11.25,0.33,0.33,0,0,1-.15.12,0.27,0.27,0,0,1-.17,0,0.26,0.26,0,0,1-.14-0.09,0.32,0.32,0,0,1-.07-0.17A0.78,0.78,0,0,1,39.74,75.65Zm0.08,0a0.72,0.72,0,0,0,0,.23,0.24,0.24,0,0,0,0,.14,0.18,0.18,0,0,0,.1.07,0.18,0.18,0,0,0,.12,0A0.24,0.24,0,0,0,40.15,76a0.72,0.72,0,0,0,.09-0.21,0.7,0.7,0,0,0,0-.22,0.25,0.25,0,0,0,0-.14,0.18,0.18,0,0,0-.1-0.07,0.18,0.18,0,0,0-.12,0,0.25,0.25,0,0,0-.11.09A0.73,0.73,0,0,0,39.82,75.67Z" style="fill:#fff"/><path d="M40.61,75.74l0,0,0-.06,0-.06H40.59l0-.16,0.11,0,0,0.1a0.56,0.56,0,0,1,0,.12Z" style="fill:#fff"/><path d="M41,75.85l0,0,0-.06,0-.06H41l0-.16,0.11,0,0,0.1a0.54,0.54,0,0,1,0,.12Z" style="fill:#fff"/><path d="M41.57,76.21l0.32,0.09,0,0.07-0.32-.09Z" style="fill:#fff"/><path d="M42.62,76l0.17,0-0.23.87-0.09,0,0.21-.78-0.14,0Z" style="fill:#fff"/><path d="M43.14,76.38l-0.08,0a0.31,0.31,0,0,1,.14-0.19,0.29,0.29,0,0,1,.23,0,0.27,0.27,0,0,1,.2.33,0.3,0.3,0,0,1-.07.13,1,1,0,0,1-.18.14l-0.28.17L43.49,77l0,0.08L42.87,77l0.43-.27,0.17-.12a0.22,0.22,0,0,0,.06-0.1,0.18,0.18,0,0,0,0-.14,0.19,0.19,0,0,0-.12-0.09,0.19,0.19,0,0,0-.15,0A0.24,0.24,0,0,0,43.14,76.38Z" style="fill:#fff"/><path d="M43.86,76.61l0,0,0-.06,0-.06H43.85l0-.16,0.11,0,0,0.1a0.56,0.56,0,0,1,0,.12Z" style="fill:#fff"/><path d="M44.29,76.72l0,0,0-.06,0-.06H44.27l0-.16,0.11,0,0,0.1a0.54,0.54,0,0,1,0,.12Z" style="fill:#fff"/><polygon points="40.94 36.62 40.85 36.56 51.03 23.8 51.11 23.86 40.94 36.62" style="fill:#fff"/><path d="M44.7,29.48l0.08,0,0.13,0.42a0.28,0.28,0,0,1,0-.08,0.24,0.24,0,0,1,.17-0.09,0.26,0.26,0,0,1,.19.06,0.27,0.27,0,0,1,.09.12,0.27,0.27,0,0,1,0,.14,0.29,0.29,0,0,1-.06.13,0.27,0.27,0,0,1-.11.08,0.26,0.26,0,0,1-.14,0A0.28,0.28,0,0,1,45,30.19a0.33,0.33,0,0,1-.08-0.09,0.69,0.69,0,0,1-.06-0.15ZM45,29.86a0.19,0.19,0,0,0,.29.24,0.19,0.19,0,0,0-.17-0.31A0.18,0.18,0,0,0,45,29.86Z" style="fill:#fff"/><path d="M45.24,29.34l-0.05,0,0-.07,0-.05,0,0-0.13-.11L45,29.09l0.08,0.07,0.09,0.09Z" style="fill:#fff"/><path d="M45.51,29l-0.05,0,0-.07,0-.05,0,0-0.13-.11,0.07-.09,0.08,0.07,0.09,0.09Z" style="fill:#fff"/><rect x="126.48" y="23.06" width="20.35" height="0.1" style="fill:#2487ff"/><rect x="93.39" y="9.57" width="33.89" height="0.1" style="fill:#2487ff"/><rect x="95.64" y="25.43" width="0.1" height="14.67" transform="translate(6.37 80.22) rotate(-46.88)" style="fill:#24a3ff"/><polygon points="44.17 72.34 44.16 72.24 93.53 66.09 93.55 66.2 44.17 72.34" style="fill:#fff"/><polygon points="81.97 75.05 48.32 68.18 48.34 68.07 81.99 74.95 81.97 75.05" style="fill:#fff"/><polygon points="120.02 75.26 86.38 68.39 86.4 68.28 120.05 75.16 120.02 75.26" style="fill:#24a3ff"/></svg>