<?xml version="1.0" encoding="utf-8"?>
<!-- Generator: Adobe Illustrator 19.2.1, SVG Export Plug-In . SVG Version: 6.00 Build 0)  -->
<svg version="1.1" id="b3223aaf-beb0-406d-bd16-ba6093b86335"
	 xmlns="http://www.w3.org/2000/svg" xmlns:xlink="http://www.w3.org/1999/xlink" x="0px" y="0px" viewBox="0 0 150 100"
	 style="enable-background:new 0 0 150 100;" xml:space="preserve">
<style type="text/css">
	.st0{fill:#FFFFFF;}
	.st1{fill:#2487FF;}
</style>
<title>main_bg_inverted</title>
<rect class="st0" width="150" height="100"/>
<path class="st1" d="M126.8,52.3H93.4V23h33.5L126.8,52.3L126.8,52.3z M93.5,52.2h33.2V23.1H93.5V52.2z"/>
<path class="st1" d="M126.9,52.3h-2.4V24.9H93.4v-1.9h31.2l0,0h2.4C127,23.1,127,52.3,126.9,52.3z M124.7,52.2h2.2V23.1h-2.2l0,0
	H93.5v1.6h31.2L124.7,52.2L124.7,52.2z"/>
<path class="st1" d="M49,55.5H30.5v-13H49V55.5z M30.6,55.5h18.3V42.6H30.6L30.6,55.5L30.6,55.5z"/>
<rect x="49" y="62.1" class="st1" width="44.3" height="0.1"/>
<path class="st1" d="M49,33.4h-1.4v-9.5H49V33.4z M47.7,33.3h1.2V24h-1.2L47.7,33.3L47.7,33.3z"/>
<path class="st1" d="M38.8,11.8L38.8,11.8c-0.1-0.3,0-0.6,0-0.9h0.1C38.8,11.1,38.8,11.4,38.8,11.8z"/>
<path class="st1" d="M94.5,62.1h-1.4v-9.8h1.4V62.1z M93.2,62h1.2v-9.6h-1.2V62z"/>
<path class="st1" d="M94.5,53.3L94.5,53.3l-0.1-0.6h11.2v0.6H94.5z M94.6,52.8v0.4h11v-0.4H94.6z"/>
<path class="st1" d="M105.6,54L105.6,54c-0.1-0.3-0.1-0.5-0.1-0.8h0.1C105.6,53.5,105.6,53.7,105.6,54z"/>
<polygon class="st1" points="105.5,54.7 105.5,54.6 105.5,54.6 "/>
<path class="st1" d="M95.5,62L95.5,62c5-0.5,9.1-3.4,9.9-7.3h0.1C104.7,58.6,100.6,61.6,95.5,62z"/>
<path class="st1" d="M94.4,62L94.4,62c0.3-0.1,0.7-0.1,1.1-0.1V62C95.1,62,94.8,62,94.4,62z"/>
<path class="st1" d="M109.3,85.6L109.3,85.6l0.8-0.1v0.1H109.3z"/>
<polygon class="st1" points="110.7,85.5 110.6,85.4 110.7,85.4 "/>
<path class="st1" d="M117.6,79.7L117.6,79.7c-0.1-0.2-0.1-0.4-0.1-0.6h0.1C117.7,79.3,117.7,79.5,117.6,79.7z"/>
<path class="st1" d="M49,55.6h-9.4v-0.8H49V55.6z M39.8,55.5h9.1v-0.6h-9.2L39.8,55.5L39.8,55.5z"/>
<path class="st1" d="M48.6,54.8H48v-6.5h0.6V54.8L48.6,54.8z M48.1,54.7h0.4v-6.3h-0.4C48.1,48.5,48.1,54.7,48.1,54.7z"/>
<path class="st1" d="M47.4,48.5v-0.1h0.8v0.1L47.4,48.5z"/>
<polygon class="st1" points="46.8,48.6 46.8,48.5 46.8,48.6 46.8,48.5 46.8,48.6 "/>
<path class="st1" d="M39.9,54.2L39.9,54.2c0.3-2.9,3.1-5.3,6.9-5.8v0.1C43,49,40.2,51.4,39.9,54.2z"/>
<path class="st1" d="M39.8,54.8L39.8,54.8c-0.1-0.2-0.1-0.4-0.1-0.6h0.1C39.8,54.4,39.8,54.6,39.8,54.8z"/>
<polygon class="st1" points="102.3,89.6 102.3,89.6 102.3,89.6 102.3,89.6 102.3,89.5 102.4,89.5 102.4,89.5 102.4,89.5 102.4,89.5 
	102.4,89.5 "/>
<path class="st1" d="M93.4,63.2H80.8v-1.1h12.6V63.2z M80.9,63.1h12.4v-0.9H80.9C80.9,62.3,80.9,63.1,80.9,63.1z"/>
<path class="st1" d="M92.9,71.9h-0.8v-8.7h0.8V71.9z M92.2,71.8h0.6v-8.5h-0.6V71.8z"/>
<path class="st1" d="M92.3,71.9c-0.3,0-0.7,0-1.1,0v-0.1C91.6,71.8,92,71.8,92.3,71.9L92.3,71.9L92.3,71.9z"/>
<polygon class="st1" points="90.4,71.8 90.4,71.7 90.4,71.7 "/>
<path class="st1" d="M90.4,71.8c-5.1-0.7-9-3.8-9.4-7.8h0.1C81.5,67.9,85.4,71,90.4,71.8L90.4,71.8L90.4,71.8z"/>
<path class="st1" d="M81,64c0-0.3,0-0.5,0-0.8l0,0C81,63.4,81,63.7,81,64L81,64L81,64z"/>
<path class="st1" d="M59,63.1H46.4V62H59V63.1L59,63.1z M46.5,63h12.4v-0.8H46.5V63z"/>
<path class="st1" d="M58.5,71.8h-0.8v-8.7h0.8C58.5,63.1,58.5,71.8,58.5,71.8z M57.8,71.7h0.5v-8.5h-0.5V71.7z"/>
<path class="st1" d="M57.9,71.8c-0.4,0-0.7,0-1.1,0v-0.1C57.2,71.7,57.5,71.7,57.9,71.8L57.9,71.8L57.9,71.8z"/>
<polygon class="st1" points="56,71.6 56,71.6 56,71.5 "/>
<path class="st1" d="M56,71.6c-5.1-0.7-9-3.8-9.5-7.8h0.1C47.1,67.8,51,70.9,56,71.6L56,71.6L56,71.6z"/>
<path class="st1" d="M46.6,63.9c0-0.3-0.1-0.6-0.1-0.9h0.1C46.6,63.3,46.6,63.5,46.6,63.9L46.6,63.9L46.6,63.9z"/>
<path class="st1" d="M75,49.8h-5.6c-0.6,0.1-1.1-0.3-1.2-0.9v-8.1c0.1-0.6,0.7-0.9,1.2-0.8H75c0.6-0.1,1.1,0.3,1.2,0.9V49
	C76.1,49.5,75.6,49.9,75,49.8z M69.3,40.1c-0.5-0.1-1,0.3-1.1,0.8v8.1c0.1,0.5,0.6,0.9,1.1,0.8H75c0.5,0.1,1-0.3,1.1-0.8v-8.1
	C76,40.3,75.5,40,75,40.1H69.3L69.3,40.1z"/>
<path class="st1" d="M73.1,52.2H71c-0.3,0-0.5-0.2-0.6-0.5v-1.6c0-0.3,0.3-0.5,0.6-0.5h2.1c0.3,0,0.5,0.2,0.6,0.5v1.6
	C73.6,52,73.4,52.2,73.1,52.2z M71,49.8c-0.2,0-0.4,0.1-0.5,0.4v1.6c0,0.2,0.2,0.4,0.5,0.4h2.1c0.2,0,0.4-0.1,0.5-0.4v-1.6
	c0-0.2-0.2-0.4-0.5-0.4C73.1,49.8,71,49.8,71,49.8z"/>
<path class="st1" d="M71,40.1L71,40.1c-0.3,0-0.5-0.2-0.6-0.5V38c0-0.1,0-0.2,0.1-0.3c0.1-0.1,0.3-0.2,0.5-0.1h2.1
	c0.3,0,0.5,0.2,0.6,0.5v1.6c0,0.3-0.3,0.5-0.6,0.5L71,40.1L71,40.1z M71,37.7c-0.1,0-0.3,0.1-0.4,0.2c-0.1,0.1-0.1,0.1-0.1,0.2v1.6
	c0,0.2,0.2,0.4,0.5,0.4c0,0,0,0,0,0h2.1c0.2,0,0.4-0.1,0.5-0.4V38c0-0.2-0.2-0.4-0.5-0.4L71,37.7L71,37.7z"/>
<path class="st1" d="M67.6,48.2h-2.1c-0.3,0-0.5-0.2-0.6-0.5v-1.6c0-0.3,0.3-0.5,0.6-0.5h2.1c0.2,0,0.3,0.1,0.5,0.2
	c0.1,0.1,0.1,0.2,0.1,0.3v1.6C68.2,48.1,67.9,48.3,67.6,48.2z M65.6,45.8c-0.2,0-0.4,0.1-0.5,0.4v1.6c0,0.2,0.2,0.4,0.5,0.4h2.1
	c0.2,0,0.4-0.1,0.5-0.4v-1.6c0-0.1-0.1-0.1-0.1-0.2c-0.1-0.1-0.2-0.1-0.4-0.1L65.6,45.8L65.6,45.8z"/>
<path class="st1" d="M67.6,44.2h-2.1c-0.2,0-0.3-0.1-0.5-0.2C65,43.9,65,43.8,65,43.7v-1.6c0-0.3,0.3-0.5,0.6-0.5h2.1
	c0.3,0,0.5,0.2,0.6,0.5v1.6c0,0.1,0,0.2-0.1,0.3C68,44.1,67.8,44.2,67.6,44.2z M65.6,41.8c-0.2,0-0.4,0.1-0.5,0.4v1.6
	c0,0.1,0,0.2,0.1,0.2c0.1,0.1,0.2,0.1,0.4,0.1h2.1c0.1,0,0.3,0,0.4-0.1c0.1-0.1,0.1-0.1,0.1-0.2v-1.6c0-0.2-0.2-0.4-0.5-0.4
	C67.6,41.8,65.6,41.8,65.6,41.8z"/>
<path class="st1" d="M78.8,48.2h-2.1c-0.3,0-0.5-0.2-0.6-0.5v-1.6c0-0.3,0.3-0.5,0.6-0.5h2.1c0.3,0,0.5,0.2,0.6,0.5v1.6
	c0,0.1,0,0.2-0.1,0.3C79.2,48.2,79,48.2,78.8,48.2z M76.8,45.8c-0.2,0-0.4,0.1-0.5,0.4v1.6c0,0.2,0.2,0.4,0.5,0.4h2.1
	c0.1,0,0.3,0,0.4-0.1c0.1-0.1,0.1-0.1,0.1-0.2v-1.6c0-0.2-0.2-0.4-0.5-0.4H76.8z"/>
<path class="st1" d="M78.8,44.2h-2.1c-0.3,0-0.5-0.2-0.6-0.5v-1.6c0-0.3,0.3-0.5,0.6-0.5h2.1c0.3,0,0.5,0.2,0.6,0.5v1.6
	C79.4,44,79.1,44.2,78.8,44.2z M76.8,41.8c-0.2,0-0.4,0.1-0.5,0.4v1.6c0,0.2,0.2,0.4,0.5,0.4h2.1c0.2,0,0.4-0.1,0.5-0.4v-1.6
	c0-0.2-0.2-0.4-0.5-0.4C78.8,41.8,76.8,41.8,76.8,41.8z"/>
<path class="st1" d="M94.8,52.1h-1.4V36h1.4V52.1L94.8,52.1z M93.5,52h1.2V36h-1.2V52z"/>
<rect x="94.1" y="36" class="st1" width="0.1" height="16.1"/>
<rect x="93.4" y="43.9" class="st1" width="1.4" height="0.1"/>
<path class="st1" d="M126.8,78.3h-1.4V62h1.4V78.3z M125.5,78.2h1.2v-16h-1.2V78.2z"/>
<rect x="126.1" y="62.1" class="st1" width="0.1" height="16.1"/>
<rect x="125.3" y="70.1" class="st1" width="1.4" height="0.1"/>
<path class="st1" d="M35.7,62.1h-5.2v-6.6h5.2L35.7,62.1L35.7,62.1z M30.7,62h5v-6.3h-5C30.7,55.7,30.7,62,30.7,62z"/>
<path class="st1" d="M34.2,60.1L34.2,60.1c-0.8,0.1-1.6-0.4-1.7-1.3s0.4-1.6,1.3-1.7s1.6,0.4,1.7,1.3c0,0.1,0,0.1,0,0.2
	C35.5,59.4,34.9,60,34.2,60.1z M34.2,57.3c-0.8,0.1-1.3,0.8-1.2,1.5c0.1,0.6,0.6,1.1,1.2,1.2l0,0c0.8-0.1,1.3-0.8,1.2-1.5
	C35.3,57.8,34.8,57.4,34.2,57.3z"/>
<path class="st1" d="M31.6,62h-1v-6.3h1V62z M30.8,61.9h0.8v-6h-0.8V61.9z"/>
<path class="st1" d="M80.2,32.9H63.3c-0.9,0.1-1.7-0.5-1.8-1.4v-2.6c0.1-0.9,0.9-1.5,1.8-1.4h16.9c0.9-0.1,1.7,0.5,1.8,1.4v2.6
	C81.9,32.3,81.1,33,80.2,32.9z M63.3,27.6c-0.8-0.1-1.6,0.5-1.7,1.3v2.6c0.1,0.8,0.9,1.4,1.7,1.3h16.9c0.8,0.1,1.6-0.5,1.7-1.3v-2.6
	c-0.1-0.8-0.9-1.4-1.7-1.3H63.3z"/>
<path class="st1" d="M80.2,32.9H63.3c-0.8,0.1-1.6-0.5-1.8-1.3v-2.7c0.1-0.7,0.6-1.3,1.4-1.4h0.1v4h17.6v-4h0.1
	c0.7,0.1,1.3,0.7,1.4,1.4v2.7C81.8,32.5,81,33,80.2,32.9z M62.8,27.6c-0.7,0.1-1.2,0.6-1.2,1.3v2.6c0.2,0.8,0.9,1.3,1.7,1.2h16.9
	c0.8,0.1,1.5-0.4,1.7-1.1v-2.7c-0.1-0.7-0.6-1.2-1.2-1.3v4H62.8C62.8,31.6,62.8,27.6,62.8,27.6z"/>
<path class="st1" d="M49,42.5H30.7v-3.3H49V42.5z M30.8,42.4h18.1v-3.1H30.8L30.8,42.4L30.8,42.4z"/>
<path class="st1" d="M49,39.3h-3.4v-5.8H49V39.3z M45.7,39.2h3.2v-5.6h-3.2L45.7,39.2L45.7,39.2z"/>
<path class="st1" d="M48,36.4h-1.4c-0.5,0-0.7-0.1-0.7-0.5v-1c0-0.4,0.2-0.5,0.7-0.5H48c0.5,0,0.7,0.1,0.7,0.5v1.1
	C48.6,36.3,48.5,36.4,48,36.4z M46.6,34.4c-0.4,0-0.5,0.1-0.5,0.4v1.1c0,0.3,0.1,0.4,0.5,0.4H48c0.4,0,0.5-0.1,0.5-0.4v-1
	c0-0.3-0.1-0.4-0.5-0.4L46.6,34.4L46.6,34.4z"/>
<path class="st1" d="M63.6,66.8h-2.1c-0.3,0-0.5-0.1-0.6-0.4v-1.2c0.1-0.3,0.3-0.4,0.6-0.4h2.1c0.3,0,0.5,0.1,0.6,0.4v1.2
	C64.1,66.7,63.8,66.8,63.6,66.8z M61.5,64.9c-0.2,0-0.4,0.1-0.5,0.3v1.2c0.1,0.2,0.3,0.3,0.5,0.3h2.1c0.2,0,0.4-0.1,0.4-0.3v-1.2
	c-0.1-0.2-0.3-0.3-0.5-0.3C63.5,64.9,61.5,64.9,61.5,64.9z"/>
<path class="st1" d="M80.7,65H59v-2.9h21.7V65z M59.1,64.9h21.4v-2.7H59.1L59.1,64.9L59.1,64.9z"/>
<path class="st1" d="M66,65h-7v-2.9h7V65z M59,64.9h6.8v-2.7H59V64.9z"/>
<path class="st1" d="M79.3,65l-0.3-0.1l1.6-2.9l0.3,0.1L79.3,65z M79.1,64.8h0.2l1.5-2.7h-0.2L79.1,64.8z"/>
<path class="st1" d="M78.1,65l-0.3-0.1l1.6-2.9l0.3,0.1L78.1,65z M77.9,64.8H78l1.5-2.7h-0.2L77.9,64.8z"/>
<path class="st1" d="M76.9,65l-0.3-0.1l1.5-2.9l0.3,0.1L76.9,65z M76.7,64.8h0.2l1.5-2.7h-0.2L76.7,64.8z"/>
<path class="st1" d="M75.7,65l-0.3-0.1l1.6-2.9l0.3,0.1L75.7,65z M75.5,64.8h0.2l1.5-2.7h-0.2L75.5,64.8z"/>
<path class="st1" d="M74.4,65l-0.3-0.1l1.6-2.9l0.3,0.1L74.4,65z M74.2,64.8h0.2l1.5-2.7h-0.2L74.2,64.8z"/>
<path class="st1" d="M73.2,65l-0.3-0.1l1.6-2.9l0.3,0.1L73.2,65z M73,64.8h0.2l1.5-2.7h-0.2L73,64.8z"/>
<path class="st1" d="M72,65l-0.3-0.1l1.6-2.9l0.3,0.1L72,65z M71.8,64.8H72l1.5-2.7h-0.2L71.8,64.8z"/>
<path class="st1" d="M70.8,65l-0.3-0.1L72,62l0.3,0.1L70.8,65z M70.6,64.8h0.2l1.5-2.7h-0.2L70.6,64.8z"/>
<path class="st1" d="M69.6,65l-0.3-0.1l1.6-2.9l0.3,0.1L69.6,65z M69.4,64.8h0.2l1.4-2.6h-0.2L69.4,64.8z"/>
<path class="st1" d="M68.4,65l-0.3-0.1l1.6-2.9l0.4,0.1L68.4,65z M68.2,64.8h0.2l1.5-2.7h-0.2L68.2,64.8z"/>
<path class="st1" d="M67.2,65.1l-0.3-0.1l1.6-2.9l0.3,0.1L67.2,65.1z M67,64.9h0.2l1.5-2.7h-0.2L67,64.9z"/>
<path class="st1" d="M66,65.1l-0.3-0.1l1.6-2.9l0.3,0.1L66,65.1z M65.8,64.9H66l1.5-2.7h-0.2L65.8,64.9z"/>
<path class="st1" d="M29.1,66.8h-2.1c-0.3,0-0.5-0.1-0.6-0.4v-1.2c0.1-0.3,0.3-0.4,0.6-0.4h2.1c0.3,0,0.5,0.1,0.6,0.4v1.2
	C29.7,66.7,29.4,66.8,29.1,66.8z M27.1,64.9c-0.2,0-0.4,0.1-0.5,0.3v1.2c0.1,0.2,0.3,0.3,0.5,0.3h2.1c0.2,0,0.4-0.1,0.5-0.3v-1.2
	c-0.1-0.2-0.3-0.3-0.5-0.3C29.1,64.9,27.1,64.9,27.1,64.9z"/>
<path class="st1" d="M46.2,65H24.6v-2.9h21.7V65z M24.7,64.9h21.5v-2.7H24.7L24.7,64.9L24.7,64.9z"/>
<path class="st1" d="M31.6,65h-7v-2.9h7V65z M24.6,64.9h6.8v-2.7h-6.8V64.9L24.6,64.9z"/>
<path class="st1" d="M44.8,65l-0.3-0.1l1.6-2.9l0.3,0.1L44.8,65z M44.6,64.8h0.2l1.5-2.7h-0.2L44.6,64.8z"/>
<path class="st1" d="M43.7,65l-0.3-0.1l1.6-2.9l0.3,0.1L43.7,65z M43.5,64.8h0.2l1.5-2.7h-0.2L43.5,64.8z"/>
<path class="st1" d="M42.4,65l-0.3-0.1l1.6-2.9l0.3,0.1L42.4,65z M42.2,64.8h0.2l1.5-2.7h-0.2L42.2,64.8z"/>
<path class="st1" d="M41.2,65l-0.3-0.1l1.6-2.9l0.3,0.1L41.2,65z M41,64.8h0.2l1.5-2.7h-0.2L41,64.8z"/>
<path class="st1" d="M40,65l-0.3-0.1l1.6-2.9l0.3,0.1L40,65z M39.8,64.8H40l1.5-2.7h-0.2L39.8,64.8z"/>
<path class="st1" d="M38.8,65l-0.3-0.1L40,62l0.3,0.1L38.8,65z M38.6,64.8h0.2l1.5-2.7h-0.2L38.6,64.8z"/>
<path class="st1" d="M37.6,65l-0.3-0.1l1.6-2.9l0.3,0.1L37.6,65z M37.4,64.8h0.2l1.4-2.6h-0.2L37.4,64.8z"/>
<path class="st1" d="M36.4,65l-0.3-0.1l1.5-2.9l0.4,0.2L36.4,65z M36.2,64.8h0.2l1.5-2.7h-0.2L36.2,64.8z"/>
<path class="st1" d="M35.2,65l-0.3-0.1l1.6-2.9l0.3,0.1L35.2,65z M35,64.9h0.2l1.5-2.7h-0.2L35,64.9z"/>
<path class="st1" d="M34,65l-0.3-0.1l1.6-2.9l0.3,0.1L34,65z M33.8,64.8H34l1.5-2.7h-0.2L33.8,64.8z"/>
<path class="st1" d="M32.8,65.1l-0.3-0.1l1.6-2.9l0.3,0.1L32.8,65.1z M32.6,64.9h0.2l1.5-2.7H34L32.6,64.9z"/>
<path class="st1" d="M31.6,65.1l-0.4-0.1l1.6-2.9l0.3,0.1L31.6,65.1z M31.4,64.9h0.1l1.5-2.6h-0.2L31.4,64.9z"/>
<path class="st1" d="M55.2,55.5h-6.2V33.4h6.2V55.5z M49.2,55.4h5.9V33.5h-6L49.2,55.4L49.2,55.4z"/>
<path class="st1" d="M50.1,55.5l-1-0.4v-0.6l2.3,0.9C51.4,55.5,50.1,55.5,50.1,55.5z M49.2,55l0.9,0.3h0.8l-1.7-0.7V55z M55,55.5
	h-1.4l-4.5-1.8v-0.6L55,55.5z M53.7,55.4h0.8l-5.2-2.1v0.3L53.7,55.4z M55.3,54.7l-6.2-2.5v-0.6l6.2,2.5L55.3,54.7L55.3,54.7z
	 M49.3,52.1l5.9,2.4v-0.3l-6-2.4L49.3,52.1L49.3,52.1z M55.3,53.3l-6.2-2.5v-0.6l6.2,2.5V53.3L55.3,53.3z M49.3,50.7l5.9,2.4v-0.3
	l-5.9-2.4V50.7L49.3,50.7z M55.3,51.8l-6.2-2.5v-0.6l6.2,2.5C55.3,51.2,55.3,51.8,55.3,51.8z M49.3,49.2l5.9,2.4v-0.3l-5.9-2.4V49.2
	L49.3,49.2z M55.3,50.4l-6.2-2.5v-0.6l6.2,2.5V50.4L55.3,50.4z M49.3,47.8l5.9,2.4v-0.3l-5.9-2.4V47.8L49.3,47.8z M55.3,48.9
	l-6.2-2.5v-0.6l6.2,2.5V48.9L55.3,48.9z M49.3,46.3l5.9,2.4v-0.3l-6-2.4L49.3,46.3L49.3,46.3z M55.3,47.5L49.1,45v-0.6l6.2,2.5V47.5
	L55.3,47.5z M49.3,44.9l5.9,2.4V47l-5.9-2.4V44.9L49.3,44.9z M55.3,46l-6.2-2.5v-0.6l6.2,2.5V46z M49.3,43.4l5.9,2.4v-0.3l-5.9-2.4
	V43.4L49.3,43.4z M55.3,44.5L49.1,42v-0.5l6.2,2.5L55.3,44.5L55.3,44.5z M49.3,42l5.9,2.4V44l-5.9-2.4V42L49.3,42z M55.3,43.1
	l-6.2-2.5V40l6.2,2.5V43.1L55.3,43.1z M49.3,40.5l5.9,2.4v-0.3l-5.9-2.4V40.5L49.3,40.5z M55.3,41.6l-6.2-2.5v-0.6l6.2,2.5V41.6
	L55.3,41.6z M49.3,39.1l5.9,2.4v-0.4l-5.9-2.4V39.1L49.3,39.1z M55.3,40.2l-6.2-2.5v-0.6l6.2,2.5V40.2L55.3,40.2z M49.3,37.6
	l5.9,2.4v-0.3l-5.9-2.4L49.3,37.6L49.3,37.6z M55.3,38.7l-6.2-2.5v-0.6l6.2,2.5V38.7L55.3,38.7z M49.3,36.2l5.9,2.4v-0.4l-5.9-2.4
	V36.2L49.3,36.2z M55.3,37.3l-6.2-2.5v-0.6l6.2,2.5V37.3L55.3,37.3z M49.3,34.7l5.9,2.4v-0.4l-5.9-2.4V34.7L49.3,34.7z M55.3,35.8
	l-6-2.5h1.4l4.7,1.9L55.3,35.8L55.3,35.8z M49.8,33.5l5.4,2.2v-0.4l-4.6-1.9L49.8,33.5L49.8,33.5z M55.3,34.4l-2.5-1h1.4l1.1,0.4
	V34.4L55.3,34.4z M53.3,33.5l1.8,0.7v-0.4l-1-0.4L53.3,33.5L53.3,33.5z"/>
<path class="st1" d="M119.2,56.5h-8.7v-4.2h8.7V56.5z M110.6,56.4h8.4v-4h-8.5L110.6,56.4L110.6,56.4z"/>
<path class="st1" d="M116.3,53.8h-4.2v-0.3h4.2V53.8L116.3,53.8z M112.3,53.7h3.9v-0.1L112.3,53.7C112.3,53.6,112.3,53.7,112.3,53.7
	z"/>
<path class="st1" d="M115.2,54h-2.1v-0.8h2.1V54z M113.3,53.9h1.8v-0.6h-1.8V53.9L113.3,53.9z"/>
<path class="st1" d="M116.5,55.2c-0.2,0-0.4-0.1-0.4-0.3c0-0.2,0.1-0.4,0.3-0.4s0.4,0.1,0.4,0.3c0,0,0,0,0,0
	C116.8,55,116.7,55.1,116.5,55.2C116.5,55.1,116.5,55.1,116.5,55.2z M116.5,54.6c-0.1,0-0.3,0.1-0.3,0.2c0,0.1,0.1,0.3,0.2,0.3
	c0.1,0,0.3-0.1,0.3-0.2c0,0,0,0,0,0C116.7,54.7,116.6,54.6,116.5,54.6z"/>
<path class="st1" d="M118.2,55.3L118.2,55.3c-0.4,0-0.6-0.1-0.6-0.3v-1.5c0-0.3,0.3-0.3,0.6-0.3s0.6,0,0.6,0.3v1.5
	C118.7,55.1,118.6,55.3,118.2,55.3z M118.2,53.3c-0.3,0-0.5,0-0.5,0.2V55c0,0.1,0,0.2,0.4,0.2l0,0l0,0c0.3,0,0.5-0.1,0.5-0.2v-1.6
	C118.6,53.2,118.5,53.2,118.2,53.3L118.2,53.3z"/>
<path class="st1" d="M116.8,53.8c0,0-0.1,0-0.1-0.1c0,0,0,0,0,0v-0.3c0,0,0-0.1,0.1-0.1c0,0,0,0,0,0h0.4c0,0,0.1,0,0.1,0.1
	c0,0,0,0,0,0v0.3c0,0,0,0.1-0.1,0.1c0,0,0,0,0,0L116.8,53.8L116.8,53.8z M116.8,53.7h0.4v-0.3h-0.4V53.7L116.8,53.7z"/>
<path class="st1" d="M111.1,53.8c0,0-0.1,0-0.1-0.1c0,0,0,0,0,0v-0.3c0,0,0-0.1,0.1-0.1c0,0,0,0,0,0h0.4c0,0,0.1,0,0.1,0.1
	c0,0,0,0,0,0v0.3c0,0,0,0.1-0.1,0.1c0,0,0,0,0,0C111.5,53.8,111.1,53.8,111.1,53.8z M111.1,53.7h0.4v-0.3h-0.4V53.7L111.1,53.7
	L111.1,53.7z"/>
<path class="st1" d="M112.7,55v-1h3v1H112.7z M112.8,54.2v0.7h2.8v-0.8L112.8,54.2L112.8,54.2z"/>
<path class="st1" d="M126.9,52.3h-0.2l0.2-0.2L126.9,52.3L126.9,52.3z M124.6,52.1v-0.6l2.4-1.6v0.6L124.6,52.1z M124.7,51.5v0.4
	l2.2-1.4v-0.4L124.7,51.5z M124.6,49.8v-0.6l2.4-1.6v0.6L124.6,49.8z M124.7,49.3v0.4l2.2-1.4v-0.4L124.7,49.3z M124.6,47.6V47
	l2.4-1.6V46L124.6,47.6z M124.7,47v0.4l2.1-1.4v-0.4L124.7,47z M124.6,45.4v-0.6l2.4-1.6v0.6L124.6,45.4z M124.7,44.8v0.4l2.2-1.4
	v-0.4L124.7,44.8z M124.6,43.1v-0.6l2.4-1.6v0.6L124.6,43.1z M124.7,42.5V43l2.2-1.4v-0.4L124.7,42.5z M124.6,40.9v-0.6l2.4-1.6v0.6
	L124.6,40.9z M124.7,40.3v0.4l2.2-1.4v-0.4L124.7,40.3z M124.6,38.7V38l2.4-1.6v0.7L124.6,38.7z M124.7,38.1v0.4l2.1-1.5v-0.3
	L124.7,38.1z M124.6,36.4v-0.6l2.4-1.6v0.6L124.6,36.4z M124.7,35.8v0.4l2.2-1.4v-0.4L124.7,35.8z M124.6,34.2v-0.6l2.4-1.6v0.6
	L124.6,34.2z M124.7,33.6V34l2.2-1.4v-0.4L124.7,33.6z M124.6,32v-0.7l2.4-1.6v0.6L124.6,32z M124.7,31.4v0.4l2.2-1.4V30L124.7,31.4
	z M124.6,29.8v-0.7l2.4-1.6v0.6L124.6,29.8z M124.7,29.2v0.4l2.2-1.4v-0.4L124.7,29.2z M124.6,27.5v-0.7l2.4-1.6v0.6L124.6,27.5z
	 M124.7,27v0.3l2.2-1.4v-0.4L124.7,27z M124.6,25.3v-0.4h-0.4l2.8-1.9v0.6L124.6,25.3z M124.5,24.8h0.2v0.2l2.2-1.4v-0.4L124.5,24.8
	z M121.4,24.9h-1l2.8-1.9h1L121.4,24.9z M120.8,24.8h0.6l2.5-1.6h-0.6L120.8,24.8z M118.6,24.9h-1l2.8-1.9h1L118.6,24.9z
	 M117.9,24.8h0.6l2.5-1.7h-0.6L117.9,24.8z M115.7,24.9h-1l2.8-1.9h1L115.7,24.9z M115.1,24.8h0.6l2.5-1.6h-0.6L115.1,24.8z
	 M112.8,24.9h-1l2.8-1.9h1L112.8,24.9z M112.2,24.8h0.6l2.5-1.6h-0.6L112.2,24.8z M109.9,24.9h-1l2.8-1.9h1L109.9,24.9z M109.3,24.8
	h0.6l2.5-1.6h-0.6L109.3,24.8z M107,24.9h-1l2.8-1.9h1L107,24.9z M106.4,24.8h0.6l2.5-1.6h-0.6L106.4,24.8z M104.1,24.9h-1l2.8-1.9
	h1L104.1,24.9z M103.5,24.8h0.6l2.5-1.6H106L103.5,24.8z M101.2,24.9h-1l2.8-1.9h1L101.2,24.9z M100.6,24.8h0.6l2.5-1.6h-0.6
	L100.6,24.8z M98.3,24.9h-1l2.8-1.9h1L98.3,24.9z M97.7,24.8h0.6l2.5-1.6h-0.6L97.7,24.8z M95.4,24.9h-1l2.8-1.9h1L95.4,24.9z
	 M94.8,24.8h0.6l2.5-1.6h-0.6L94.8,24.8z M93.4,24.4v-0.7l1-0.7h1L93.4,24.4z M93.5,23.8v0.4l1.5-1h-0.6L93.5,23.8z"/>
<path class="st1" d="M126.8,62.1h-4.4v-9.9h4.4V62.1z M122.4,62h4.2v-9.7h-4.2V62L122.4,62z"/>
<path class="st1" d="M126.4,62.1h-1.3l-2.8-0.9v-0.4L126.4,62.1z M125.1,62h0.6l-3.2-1v0.1L125.1,62z M123.4,62.1h-1.1v-0.3
	L123.4,62.1z M122.5,62h0.3H122.5L122.5,62L122.5,62z M126.8,61.7l-4.4-1.4v-0.4l4.4,1.4V61.7z M122.5,60.2l4.2,1.3v-0.2l-4.2-1.3
	L122.5,60.2L122.5,60.2z M126.8,60.7l-4.4-1.4v-0.4l4.4,1.4V60.7z M122.5,59.2l4.2,1.3v-0.2l-4.2-1.4L122.5,59.2L122.5,59.2z
	 M126.8,59.8l-4.4-1.4v-0.4l4.4,1.4V59.8z M122.5,58.3l4.2,1.3v-0.2l-4.2-1.3V58.3L122.5,58.3z M126.8,58.8l-4.4-1.4V57l4.4,1.4
	V58.8L126.8,58.8z M122.5,57.3l4.2,1.3v-0.2l-4.2-1.3V57.3L122.5,57.3z M126.8,57.9l-4.4-1.4V56l4.4,1.4V57.9L126.8,57.9z
	 M122.5,56.4l4.2,1.3v-0.2l-4.2-1.3V56.4L122.5,56.4z M126.8,56.9l-4.4-1.4v-0.4l4.4,1.4V56.9z M122.5,55.4l4.2,1.3v-0.2l-4.2-1.3
	V55.4L122.5,55.4z M126.8,56l-4.4-1.4v-0.4l4.4,1.4V56z M122.4,54.5l4.2,1.3v-0.2l-4.2-1.3V54.5L122.4,54.5z M126.8,55l-4.4-1.4
	v-0.4l4.4,1.4V55z M122.4,53.5l4.2,1.3v-0.2l-4.2-1.3C122.4,53.3,122.4,53.5,122.4,53.5z M126.8,54.1l-4.4-1.4v-0.4l4.4,1.4V54.1z
	 M122.4,52.6l4.2,1.3v-0.2l-4.2-1.3C122.4,52.4,122.4,52.6,122.4,52.6z M126.8,53.1l-2.8-0.9h1.3l1.6,0.5L126.8,53.1L126.8,53.1z
	 M124.6,52.3l2.1,0.7v-0.2l-1.5-0.5H124.6L124.6,52.3z"/>
<path class="st1" d="M32.5,46.4h-1.1v-2.8h1.1V46.4L32.5,46.4z M31.5,46.3h0.9v-2.6h-0.9L31.5,46.3L31.5,46.3z"/>
<path class="st1" d="M33.9,46c-1,0-1.8-0.5-1.8-1s0.8-1,1.8-1s1.8,0.5,1.8,1S34.9,46,33.9,46z M33.9,44c-0.9,0-1.7,0.4-1.7,1
	s0.8,0.9,1.7,0.9s1.7-0.4,1.7-0.9S34.8,44,33.9,44z"/>
<polygon class="st1" points="42.5,37.9 42.5,37.8 63.2,36.8 70.2,25.8 70.3,25.9 63.2,36.9 63.2,36.9 "/>
<rect x="63.9" y="47.7" class="st1" width="0.1" height="17.1"/>
<rect x="64.7" y="47.8" class="st1" width="0.1" height="17"/>
<rect x="65.6" y="47.8" class="st1" width="0.1" height="17"/>
<rect x="66.3" y="47.8" class="st1" width="0.1" height="16.9"/>
<rect x="67" y="47.8" class="st1" width="0.1" height="16.8"/>
<rect x="67.8" y="47.7" class="st1" width="0.1" height="16.8"/>
<rect x="68.5" y="47.7" class="st1" width="0.1" height="16.8"/>
<rect x="69.2" y="47.7" class="st1" width="0.1" height="16.7"/>
<rect x="69.9" y="47.7" class="st1" width="0.1" height="16.6"/>
<rect x="70.7" y="47.7" class="st1" width="0.1" height="16.6"/>
<rect x="71.4" y="47.8" class="st1" width="0.1" height="16.5"/>
<rect x="72.1" y="47.8" class="st1" width="0.1" height="16.5"/>
<rect x="72.8" y="47.8" class="st1" width="0.1" height="16.4"/>
<rect x="73.6" y="47.8" class="st1" width="0.1" height="16.3"/>
<rect x="74.3" y="47.7" class="st1" width="0.1" height="16.4"/>
<polygon class="st1" points="65.9,76.7 27.3,67.5 27.3,67.4 66,76.6 "/>
<rect x="97.1" y="43.8" transform="matrix(0.1255 -0.9921 0.9921 0.1255 18.4982 154.9095)" class="st1" width="0.1" height="46.4"/>
<polygon class="st1" points="115.2,70.7 69.1,64.4 69.1,64.3 115.2,70.6 "/>
<polygon class="st1" points="110.2,71.3 64.5,64.8 64.5,64.7 110.2,71.2 "/>
<rect x="82.7" y="45.6" transform="matrix(0.1485 -0.9889 0.9889 0.1485 2.8273 140.1216)" class="st1" width="0.1" height="45.7"/>
<polygon class="st1" points="105.4,73.2 56.3,65.4 56.3,65.3 105.4,73 "/>
<rect x="77.9" y="44.1" transform="matrix(0.1638 -0.9865 0.9865 0.1638 -3.6924 135.2862)" class="st1" width="0.1" height="51.5"/>
<polygon class="st1" points="99.3,74.6 49.1,65.9 49.1,65.8 99.3,74.5 "/>
<rect x="70.4" y="45.3" transform="matrix(0.179 -0.9839 0.9839 0.179 -11.5736 127.2689)" class="st1" width="0.1" height="50.5"/>
<rect x="67" y="46" transform="matrix(0.1867 -0.9824 0.9824 0.1867 -15.1239 123.6193)" class="st1" width="0.1" height="49.8"/>
<polygon class="st1" points="87.9,76.1 39.7,66.6 39.7,66.5 87.9,76 "/>
<polygon class="st1" points="78,75.2 36.9,66.8 36.9,66.6 78,75.1 "/>
<polygon class="st1" points="74.8,75.6 34.3,66.9 34.4,66.8 74.8,75.5 "/>
<rect x="51.8" y="51.1" transform="matrix(0.217 -0.9762 0.9762 0.217 -29.2119 106.5782)" class="st1" width="0.1" height="40.8"/>
<rect x="49.1" y="51.6" transform="matrix(0.2244 -0.9745 0.9745 0.2244 -31.7816 103.5932)" class="st1" width="0.1" height="40.3"/>
<rect x="25.6" y="44.2" class="st1" width="0.1" height="3.5"/>
<rect x="26.4" y="44.2" class="st1" width="0.1" height="3.5"/>
<rect x="27.9" y="44.2" class="st1" width="0.1" height="3.5"/>
<rect x="28.7" y="44.2" class="st1" width="0.1" height="3.5"/>
<rect x="30.2" y="44.2" class="st1" width="0.1" height="3.5"/>
<rect x="31" y="44.2" class="st1" width="0.1" height="3.5"/>
<rect x="32.3" y="44.1" class="st1" width="0.1" height="3.4"/>
<rect x="33.3" y="44.3" class="st1" width="0.1" height="3.5"/>
<rect x="33.1" y="46" transform="matrix(4.886881e-03 -1 1 4.886881e-03 -11.3602 80.6246)" class="st1" width="3.4" height="0.1"/>
<rect x="35.5" y="44.3" class="st1" width="0.1" height="3.5"/>
<polygon class="st1" points="37.2,47.7 37.1,47.7 37.1,44.3 37.2,44.3 "/>
<rect x="37.8" y="44.3" class="st1" width="0.1" height="3.4"/>
<polygon class="st1" points="39.5,47.7 39.4,47.7 39.4,44.4 39.5,44.4 "/>
<rect x="40.1" y="44.4" class="st1" width="0.1" height="3.3"/>
<polygon class="st1" points="41.8,47.7 41.7,47.7 41.7,44.4 41.8,44.4 "/>
<rect x="42.4" y="44.4" class="st1" width="0.1" height="3.3"/>
<polygon class="st1" points="102.8,48.3 102.8,48.2 120.6,48.1 120.6,48.2 "/>
<polygon class="st1" points="63.8,48.4 63.8,48.3 81.8,48.2 81.8,48.4 "/>
<polygon class="st1" points="62.7,48.4 24.9,48.2 24.9,48.1 62.7,48.3 "/>
<polygon class="st1" points="71.5,27 71.5,26.9 97.7,22.7 97.7,22.8 "/>
<rect x="72.8" y="26.5" transform="matrix(0.9887 -0.1497 0.1497 0.9887 -3.0202 12.9599)" class="st1" width="23.5" height="0.1"/>
<polygon class="st1" points="74.4,29.7 74.4,29.6 94.7,26.8 94.7,26.9 "/>
<polygon class="st1" points="75.8,31.1 75.8,31 93.2,28.8 93.2,28.9 "/>
<polygon class="st1" points="77.3,32.5 77.3,32.4 91.7,30.7 91.7,30.8 "/>
<rect x="78.8" y="33.2" transform="matrix(0.9946 -0.1033 0.1033 0.9946 -2.9826 8.9123)" class="st1" width="11.5" height="0.1"/>
<polygon class="st1" points="80.3,35.3 80.3,35.2 88.8,34.5 88.9,34.6 "/>
<polygon class="st1" points="72.3,27.8 54.4,26.2 54.4,26.1 72.3,27.6 "/>
<polygon class="st1" points="115.2,31.5 104.4,30.5 104.4,30.4 115.2,31.4 "/>
<rect x="65.3" y="19.9" transform="matrix(7.898105e-02 -0.9969 0.9969 7.898105e-02 31.4777 91.7328)" class="st1" width="0.1" height="17.8"/>
<polygon class="st1" points="116.7,32.9 105.4,32 105.4,31.9 116.7,32.8 "/>
<polygon class="st1" points="76.1,31.4 58.5,30.1 58.6,30 76.1,31.2 "/>
<polygon class="st1" points="118.2,34.4 106.2,33.5 106.2,33.4 118.2,34.3 "/>
<rect x="68.9" y="23.4" transform="matrix(5.989229e-02 -0.9982 0.9982 5.989229e-02 32.7068 99.0851)" class="st1" width="0.1" height="17.5"/>
<rect x="112.9" y="28.6" transform="matrix(5.989229e-02 -0.9982 0.9982 5.989229e-02 71.2714 145.5566)" class="st1" width="0.1" height="12.6"/>
<polygon class="st1" points="79.8,34.9 62.5,33.9 62.5,33.8 79.8,34.8 "/>
<rect x="114.5" y="30.2" transform="matrix(5.721552e-02 -0.9984 0.9984 5.721552e-02 71.2311 149.0571)" class="st1" width="0.1" height="13.3"/>
<rect x="34.6" y="34.4" transform="matrix(1.448576e-02 -0.9999 0.9999 1.448576e-02 -9.6529 77.782)" class="st1" width="0.1" height="18.8"/>
<rect x="34.5" y="34.9" transform="matrix(1.448576e-02 -0.9999 0.9999 1.448576e-02 -10.2058 78.327)" class="st1" width="0.2" height="18.9"/>
<polygon class="st1" points="103.3,48.8 103.3,48.7 121,48.6 121,48.7 "/>
<rect x="64.4" y="48.9" transform="matrix(1 -4.886902e-03 4.886902e-03 1 -0.2382 0.3593)" class="st1" width="17.9" height="0.1"/>
<polygon class="st1" points="62.3,49 24.5,48.6 24.5,48.5 62.3,48.9 "/>
<rect x="103.9" y="49.2" transform="matrix(1 -9.599164e-03 9.599164e-03 1 -0.4671 1.0841)" class="st1" width="17.6" height="0.1"/>
<rect x="65.1" y="49.5" transform="matrix(1 -4.886902e-03 4.886902e-03 1 -0.2411 0.3623)" class="st1" width="17.9" height="0.1"/>
<polygon class="st1" points="61.8,49.6 24.1,49 24.1,48.9 61.8,49.5 "/>
<polygon class="st1" points="104.4,49.8 104.4,49.7 122,49.5 122,49.7 "/>
<polygon class="st1" points="65.7,50.3 65.7,50.2 83.6,50 83.6,50.1 "/>
<polygon class="st1" points="61.3,50.2 23.8,49.4 23.8,49.3 61.3,50.1 "/>
<polygon class="st1" points="104.9,50.3 104.9,50.2 122.5,50 122.5,50.1 "/>
<polygon class="st1" points="66.4,50.9 66.3,50.8 84.1,50.5 84.1,50.6 "/>
<rect x="42.1" y="31.6" transform="matrix(2.704936e-02 -0.9996 0.9996 2.704936e-02 -9.2256 91.1129)" class="st1" width="0.1" height="37.4"/>
<polygon class="st1" points="105.5,50.9 105.5,50.8 123,50.5 123,50.6 "/>
<polygon class="st1" points="67,51.5 67,51.4 84.7,51.1 84.7,51.2 "/>
<polygon class="st1" points="60.4,51.5 23.2,50.2 23.2,50.2 60.4,51.3 "/>
<rect x="106" y="51.1" transform="matrix(0.9998 -1.919744e-02 1.919744e-02 0.9998 -0.9606 2.212)" class="st1" width="17.4" height="0.1"/>
<rect x="67.6" y="51.8" transform="matrix(0.9998 -1.919744e-02 1.919744e-02 0.9998 -0.9813 1.4775)" class="st1" width="17.7" height="0.1"/>
<rect x="41.4" y="32.7" transform="matrix(3.751580e-02 -0.9993 0.9993 3.751580e-02 -11.4186 90.7517)" class="st1" width="0.1" height="37.1"/>
<polygon class="st1" points="106.6,51.9 106.6,51.8 123.9,51.4 123.9,51.5 "/>
<polygon class="st1" points="68.3,52.7 68.3,52.6 85.9,52.2 85.9,52.3 "/>
<polygon class="st1" points="25.2,67.6 25.1,67.5 74.8,64 74.8,64.1 "/>
<path class="st1" d="M111.3,26.5h0.2v1h-0.1L111.3,26.5L111.3,26.5L111.3,26.5z"/>
<path class="st1" d="M112.1,26.5h0.2v1h-0.1L112.1,26.5L112.1,26.5L112.1,26.5z"/>
<path class="st1" d="M112.6,27c0-0.1,0-0.2,0-0.3c0-0.1,0.1-0.1,0.1-0.2c0,0,0.1-0.1,0.2,0c0.1,0,0.1,0,0.2,0c0.1,0,0.1,0.1,0.1,0.2
	c0.1,0.2,0.1,0.4,0,0.6c0,0.1-0.1,0.1-0.1,0.2c-0.1,0-0.1,0.1-0.2,0c-0.1,0-0.1,0-0.2,0c-0.1,0-0.1-0.1-0.1-0.2
	C112.6,27.2,112.6,27.1,112.6,27z M112.7,27c0,0.1,0,0.2,0,0.2c0,0.1,0,0.1,0.1,0.1c0,0,0.1,0,0.1,0c0,0,0.1,0,0.1,0
	c0,0,0.1-0.1,0.1-0.1c0-0.1,0-0.2,0-0.2c0-0.1,0-0.2,0-0.2c0-0.1,0-0.1-0.1-0.1c-0.1-0.1-0.2-0.1-0.2,0c0,0-0.1,0.1-0.1,0.1
	C112.7,26.8,112.7,26.9,112.7,27z"/>
<path class="st1" d="M113.5,27.3L113.5,27.3c0.1,0,0.1,0.1,0.1,0.1c0,0,0,0,0,0h-0.1h-0.1C113.4,27.4,113.4,27.4,113.5,27.3
	C113.4,27.3,113.4,27.3,113.5,27.3L113.5,27.3z"/>
<path class="st1" d="M114.6,26.5c0.1,0,0.3,0.1,0.4,0.1c0.2,0.2,0.2,0.5,0,0.7c-0.1,0.1-0.2,0.1-0.4,0.1c-0.1,0-0.3-0.1-0.4-0.1
	c-0.1-0.1-0.2-0.2-0.2-0.4c0-0.1,0-0.2,0.1-0.3C114.3,26.6,114.5,26.5,114.6,26.5z M114.6,26.6c-0.1,0-0.1,0-0.2,0.1
	c-0.1,0-0.1,0.1-0.2,0.1c0,0.1-0.1,0.1-0.1,0.2c0,0.2,0.2,0.4,0.4,0.4l0,0c0.1,0,0.1,0,0.2,0c0.1,0,0.1-0.1,0.2-0.1
	c0-0.1,0-0.1,0-0.2c0-0.1,0-0.1-0.1-0.2C114.9,26.7,114.8,26.6,114.6,26.6z"/>
<path class="st1" d="M115.7,26.7L115.7,26.7c0,0-0.1-0.1-0.2-0.1c0,0-0.1,0-0.1,0c0,0-0.1,0.1-0.1,0.1c0,0,0,0.1,0,0.1
	c0,0,0,0,0.1,0.1h0.1c0.1,0,0.1,0,0.2-0.1l0,0c0,0,0,0.1-0.1,0.1h-0.1c-0.1,0-0.1,0-0.2-0.1c0,0-0.1-0.1-0.1-0.1c0,0,0-0.1,0-0.1
	c0,0,0-0.1,0.1-0.1c0,0,0.1,0,0.1,0h0.1h0.1L115.7,26.7z"/>
<rect x="25.1" y="40.6" class="st1" width="0.2" height="29.3"/>
<rect x="29.9" y="54.9" class="st1" width="0.1" height="7.6"/>
<rect x="33.3" y="55.1" class="st1" width="0.1" height="7.9"/>
<rect x="44" y="37.3" class="st1" width="0.2" height="36"/>
<rect x="44.1" y="52.7" transform="matrix(0.2397 -0.9708 0.9708 0.2397 -36.5914 97.8749)" class="st1" width="0.1" height="39.2"/>
<polygon class="st1" points="88.1,76.3 81.1,74.9 81.1,74.7 88.1,76.1 "/>
<rect x="46.6" y="36.2" transform="matrix(0.9947 -0.1028 0.1028 0.9947 -3.4493 5.6618)" class="st1" width="13.2" height="0.1"/>
<polygon class="st1" points="25.1,43.7 25.1,43.6 44,42.7 44,42.8 "/>
<rect x="25.1" y="43.7" transform="matrix(0.9989 -4.693211e-02 4.693211e-02 0.9989 -2.0156 1.6716)" class="st1" width="18.9" height="0.1"/>
<rect x="33.4" y="48.3" transform="matrix(4.675778e-02 -0.9989 0.9989 4.675778e-02 -19.8266 82.7371)" class="st1" width="0.1" height="7"/>
<rect x="53.9" y="48.4" transform="matrix(4.675778e-02 -0.9989 0.9989 4.675778e-02 -1.2388 104.1295)" class="st1" width="0.1" height="8.7"/>
<polygon class="st1" points="103,46.2 90.3,46 90.3,45.9 103,46 "/>
<polygon class="st1" points="118.4,45.6 107.2,45.5 107.2,45.3 118.4,45.5 "/>
<polygon class="st1" points="102.9,45.4 90.3,45.3 90.3,45.2 102.9,45.3 "/>
<polygon class="st1" points="78.5,44.7 66.3,44.6 66.3,44.5 78.5,44.6 "/>
<polygon class="st1" points="78.9,45.1 65.8,45 65.8,44.9 78.9,45 "/>
<rect x="86.3" y="74.9" transform="matrix(0.9913 -0.1319 0.1319 0.9913 -9.0545 13.3096)" class="st1" width="19.2" height="0.2"/>
<polygon class="st1" points="100.5,77.6 100.5,77.5 105.5,76.6 105.5,76.7 "/>
<polygon class="st1" points="87.6,79.7 87.6,79.6 94.6,78.4 94.7,78.5 "/>
<rect x="122.2" y="38.1" class="st1" width="0.2" height="0.6"/>
<polygon class="st1" points="122.3,38.3 108.4,37.5 108.4,37.4 122.3,38.2 "/>
<rect x="72.5" y="27" transform="matrix(5.216162e-02 -0.9986 0.9986 5.216162e-02 33.1979 106.2112)" class="st1" width="0.1" height="17.2"/>
<polygon class="st1" points="122.3,38.8 105.4,38 105.5,37.8 122.3,38.6 "/>
<rect x="72.4" y="27.8" transform="matrix(5.007005e-02 -0.9987 0.9987 5.007005e-02 32.515 107.0254)" class="st1" width="0.2" height="17.2"/>
<rect x="58.1" y="21.7" transform="matrix(0.6895 -0.7243 0.7243 0.6895 -3.4296 51.3556)" class="st1" width="0.2" height="16"/>
<rect x="65.9" y="46.6" transform="matrix(0.6926 -0.7213 0.7213 0.6926 -16.0742 63.0776)" class="st1" width="0.2" height="7.7"/>
<rect x="83.6" y="46.6" transform="matrix(0.69 -0.7238 0.7238 0.69 -10.3865 76.1151)" class="st1" width="0.2" height="7.2"/>
<rect x="104.6" y="46.8" transform="matrix(0.6899 -0.7239 0.7239 0.6899 -3.7056 91.2615)" class="st1" width="0.2" height="6.4"/>
<rect x="122.1" y="46.8" transform="matrix(0.6895 -0.7243 0.7243 0.6895 1.9342 103.9389)" class="st1" width="0.2" height="5.8"/>
<rect x="39" y="30.7" transform="matrix(0.6174 -0.7867 0.7867 0.6174 -6.087 49.108)" class="st1" width="17" height="0.2"/>
<polygon class="st1" points="42.5,38 41.9,37.5 42,37.4 42.5,37.7 52.5,24.9 63.8,35.8 63.9,35.2 64.1,35.2 64,36.3 52.5,25.2 "/>
<polygon class="st1" points="42.5,37.9 42.5,37.8 44.1,37.6 44.1,37.7 "/>
<rect x="41.2" y="31.5" transform="matrix(0.6147 -0.7888 0.7888 0.6147 -6.1381 50.4688)" class="st1" width="14.7" height="0.1"/>
<rect x="87.5" y="36.4" class="st1" width="0.2" height="42.1"/>
<rect x="81" y="36" class="st1" width="0.2" height="38.8"/>
<rect x="105.3" y="37.8" class="st1" width="0.2" height="37.5"/>
<rect x="120" y="38.6" class="st1" width="0.2" height="31.8"/>
<polygon class="st1" points="58.2,67.4 49.6,65.9 49.6,65.8 58.3,67.3 "/>
<polygon class="st1" points="37,63.7 30,62.5 30,62.4 37,63.6 "/>
<polygon class="st1" points="108.7,63.7 108.7,63.6 116.4,62.9 116.4,63 "/>
<polygon class="st1" points="67.4,67.1 67.4,66.9 76.2,66.2 76.2,66.3 "/>
<polygon class="st1" points="111.4,55.7 111.4,55.6 118.6,55.3 118.6,55.4 "/>
<polygon class="st1" points="111.4,54.8 111.4,54.7 118.6,54.5 118.6,54.6 "/>
<rect x="70.5" y="57.4" transform="matrix(0.9992 -3.996804e-02 3.996804e-02 0.9992 -2.2365 3.0247)" class="st1" width="8.1" height="0.1"/>
<rect x="70.5" y="56.1" transform="matrix(0.9993 -3.769019e-02 3.769019e-02 0.9993 -2.0621 2.8516)" class="st1" width="8.1" height="0.1"/>
<polygon class="st1" points="108.6,52.2 108.6,52.1 116,51.9 116,52 "/>
<rect x="67.4" y="52.9" transform="matrix(0.9997 -2.303631e-02 2.303631e-02 0.9997 -1.2007 1.6628)" class="st1" width="8.3" height="0.1"/>
<polygon class="st1" points="58.3,66.8 49.6,65.4 49.6,65.3 58.3,66.7 "/>
<polygon class="st1" points="37,62.9 30,61.8 30,61.7 37,62.8 "/>
<path class="st1" d="M34.5,55.3l-6.8-0.6v-0.1L34.5,55.3L34.5,55.3z"/>
<polygon class="st1" points="87.5,73.1 81.1,71.9 81.1,71.8 87.6,73 "/>
<rect x="81.1" y="36.5" transform="matrix(0.9971 -7.550084e-02 7.550084e-02 0.9971 -2.5228 6.4724)" class="st1" width="6.5" height="0.2"/>
<rect x="70.5" y="23.2" transform="matrix(0.9856 -0.1692 0.1692 0.9856 -2.7101 14.7299)" class="st1" width="29.2" height="0.2"/>
<rect x="63.1" y="75.8" transform="matrix(0.9926 -0.1217 0.1217 0.9926 -8.6981 9.3411)" class="st1" width="18" height="0.1"/>
<rect x="105.3" y="70.7" transform="matrix(0.9926 -0.1217 0.1217 0.9926 -7.7748 14.343)" class="st1" width="16.5" height="0.2"/>
<polygon class="st1" points="87.6,73.1 87.6,73 105.4,70.9 105.4,71 "/>
<rect x="63.1" y="72.8" transform="matrix(0.9941 -0.1085 0.1085 0.9941 -7.4797 8.2594)" class="st1" width="18" height="0.1"/>
<polygon class="st1" points="105.4,69.3 105.4,69.2 120.1,67.6 120.1,67.7 "/>
<rect x="69.4" y="24.9" transform="matrix(9.323946e-02 -0.9956 0.9956 9.323946e-02 37.4044 92.6134)" class="st1" width="0.2" height="1.7"/>
<polygon class="st1" points="103.6,29 70.4,25.9 70.4,25.8 103.6,28.9 "/>
<rect x="109.4" y="22.9" transform="matrix(8.963770e-02 -0.996 0.996 8.963770e-02 70.8019 135.4266)" class="st1" width="0.2" height="12.2"/>
<path class="st1" d="M108.7,37.6l-1.9-0.1l0,0l-8-13.6l-9.4,12.4l-2.1,0.2L98.8,21l-1.5-2.7l0.2-0.1l1.5,2.6l1.7-2.2l0.2,0.1
	L99.1,21L108.7,37.6z M106.9,37.3l1.4,0.1l-9.4-16.2l-11.2,15l1.5-0.1l9.6-12.6L106.9,37.3z"/>
<polygon class="st1" points="105.4,38 105.4,37.9 97.8,24.9 97.9,24.9 105.5,37.8 108.5,37.5 108.5,37.5 "/>
<polygon class="st1" points="46.7,45.4 46.7,45.3 59.8,45 59.8,45 "/>
<polygon class="st1" points="80.7,36.1 80.7,36 88.3,35.3 88.3,35.4 "/>
<polygon class="st1" points="34.5,54.4 27.6,53.9 27.6,53.8 34.5,54.3 "/>
<polygon class="st1" points="27.6,54 27.6,53.9 29.9,51.6 30,51.7 "/>
<polygon class="st1" points="34.5,54.4 34.5,54.3 36.9,51.9 37,52 "/>
<rect x="36.9" y="51.9" class="st1" width="0.1" height="11.7"/>
<rect x="46.6" y="37" class="st1" width="0.1" height="8.4"/>
<rect x="59.7" y="35.6" class="st1" width="0.1" height="9.5"/>
<rect x="55.2" y="36.1" class="st1" width="0.1" height="9.1"/>
<rect x="50.7" y="36.5" class="st1" width="0.1" height="8.7"/>
<rect x="78.4" y="38.5" class="st1" width="0.1" height="6.1"/>
<rect x="78.9" y="38.1" class="st1" width="0.1" height="7"/>
<rect x="66.2" y="38" class="st1" width="0.1" height="6.5"/>
<rect x="65.8" y="37.5" class="st1" width="0.1" height="7.4"/>
<rect x="70.4" y="37.7" class="st1" width="0.1" height="7.2"/>
<rect x="74.8" y="37.9" class="st1" width="0.1" height="7.1"/>
<rect x="118.3" y="39.8" class="st1" width="0.1" height="5.8"/>
<rect x="107.2" y="39.3" class="st1" width="0.1" height="6.2"/>
<rect x="111.1" y="39.5" class="st1" width="0.1" height="6"/>
<rect x="114.8" y="39.6" class="st1" width="0.1" height="5.9"/>
<rect x="102.9" y="38.3" class="st1" width="0.1" height="7.7"/>
<rect x="90.3" y="37.8" class="st1" width="0.1" height="8.2"/>
<rect x="94.7" y="38" class="st1" width="0.1" height="8"/>
<rect x="98.9" y="38.2" class="st1" width="0.1" height="7.9"/>
<rect x="27.6" y="53.8" class="st1" width="0.1" height="0.8"/>
<polygon class="st1" points="34.6,55.2 34.5,55.2 34.5,54.3 34.6,54.3 "/>
<rect x="34.5" y="54.3" transform="matrix(0.9991 -4.239879e-02 4.239879e-02 0.9991 -2.273 1.5626)" class="st1" width="2.4" height="0.1"/>
<polygon class="st1" points="34.5,55.3 34.5,55.2 36.9,55.1 36.9,55.2 "/>
<rect x="49.6" y="52.5" class="st1" width="0.1" height="13.3"/>
<rect x="53.8" y="56.8" class="st1" width="0.1" height="9.7"/>
<path class="st1" d="M55.2,57l-8.5-0.7v-0.1L55.2,57L55.2,57z"/>
<polygon class="st1" points="55.2,56 46.7,55.3 46.7,55.2 55.3,55.8 "/>
<polygon class="st1" points="46.8,55.4 46.7,55.3 49.6,52.5 49.7,52.6 "/>
<polygon class="st1" points="55.3,55.9 55.2,55.8 58.2,52.8 58.3,52.9 "/>
<rect x="58.2" y="52.9" class="st1" width="0.1" height="14.5"/>
<rect x="46.7" y="55.2" class="st1" width="0.1" height="1"/>
<polygon class="st1" points="55.3,57 55.2,57 55.2,55.9 55.3,55.9 "/>
<rect x="55.2" y="55.8" transform="matrix(0.9991 -4.205003e-02 4.205003e-02 0.9991 -2.2998 2.4353)" class="st1" width="3" height="0.1"/>
<polygon class="st1" points="55.2,57 55.2,56.9 58.2,56.8 58.2,56.9 "/>
<rect x="76.1" y="57.1" class="st1" width="0.1" height="10.2"/>
<rect x="72" y="57.3" class="st1" width="0.1" height="10.3"/>
<rect x="77.1" y="52.3" transform="matrix(0.7189 -0.6952 0.6952 0.7189 -16.152 68.9399)" class="st1" width="0.1" height="4.3"/>
<polygon class="st1" points="70.5,56.3 67.4,53.1 67.5,53 70.6,56.3 "/>
<rect x="67.4" y="53" class="st1" width="0.1" height="15"/>
<rect x="69" y="54.7" transform="matrix(4.274748e-02 -0.9991 0.9991 4.274748e-02 9.9087 122.754)" class="st1" width="0.1" height="3.1"/>
<polygon class="st1" points="70.6,57.4 67.4,57.3 67.5,57.2 70.6,57.3 "/>
<polygon class="st1" points="122.3,38.3 113.6,30 113.7,29.8 122.4,38.2 "/>
<polygon class="st1" points="108.6,64.5 108.6,64.4 116.4,63.8 116.4,63.9 "/>
<polygon class="st1" points="67.4,68.1 67.4,68 76.2,67.2 76.2,67.3 "/>
<rect x="75.6" y="23.6" transform="matrix(0.6895 -0.7243 0.7243 0.6895 1.0839 64.4669)" class="st1" width="0.2" height="14.8"/>
<path class="st1" d="M52.9,34.2c-0.1,0-0.3,0-0.4-0.1c-0.7-0.4-1.1-1.7-0.9-2.9c0.2-1,0.7-1.7,1.3-1.7c0.1,0,0.3,0,0.4,0.1
	c0.7,0.4,1.1,1.7,0.9,2.9C54.1,33.5,53.5,34.2,52.9,34.2z M52.9,29.5c-0.5,0-1,0.7-1.2,1.6c-0.2,1.2,0.2,2.5,0.8,2.8
	c0.1,0.1,0.2,0.1,0.3,0.1c0.5,0,1-0.7,1.2-1.6c0.2-1.2-0.2-2.5-0.8-2.8C53.2,29.6,53.1,29.6,52.9,29.5L52.9,29.5z"/>
<rect x="78.6" y="56" class="st1" width="0.1" height="1.1"/>
<polygon class="st1" points="70.5,57.4 70.5,56.3 70.6,56.3 70.6,57.4 "/>
<rect x="116.3" y="55.5" class="st1" width="0.1" height="8.3"/>
<rect x="112.7" y="55.5" class="st1" width="0.1" height="8.6"/>
<polygon class="st1" points="118.6,54.6 115.9,51.9 116,51.9 118.7,54.5 "/>
<rect x="110" y="51.6" transform="matrix(0.6926 -0.7213 0.7213 0.6926 -4.7415 95.794)" class="st1" width="0.1" height="3.8"/>
<rect x="108.6" y="52.1" class="st1" width="0.1" height="12.4"/>
<rect x="110" y="53.3" transform="matrix(4.762952e-02 -0.9989 0.9989 4.762952e-02 50.1535 162.0228)" class="st1" width="0.1" height="2.8"/>
<polygon class="st1" points="111.4,55.8 108.7,55.6 108.7,55.5 111.4,55.7 "/>
<rect x="118.6" y="54.5" class="st1" width="0.1" height="0.9"/>
<polygon class="st1" points="111.3,55.7 111.3,54.8 111.4,54.8 111.4,55.7 "/>
<polygon class="st1" points="118.3,39.8 107.2,39.4 107.2,39.2 118.3,39.7 "/>
<polygon class="st1" points="102.9,39.2 90.3,38.6 90.3,38.5 102.9,39.1 "/>
<rect x="72.4" y="32.1" transform="matrix(4.292189e-02 -0.9991 0.9991 4.292189e-02 31.1177 108.9181)" class="st1" width="0.1" height="12.2"/>
<rect x="72.4" y="31.3" transform="matrix(4.292189e-02 -0.9991 0.9991 4.292189e-02 31.5203 108.5227)" class="st1" width="0.1" height="13.1"/>
<rect x="96.6" y="31.7" transform="matrix(4.640914e-02 -0.9989 0.9989 4.640914e-02 54.0994 132.793)" class="st1" width="0.1" height="12.7"/>
<rect x="21" y="47.6" class="st1" width="102.2" height="0.2"/>
<polygon class="st1" points="90.2,56.6 90.2,56.4 102.8,55.9 102.8,56.1 "/>
<rect x="96.8" y="51.2" class="st1" width="0.2" height="24.7"/>
<rect x="90" y="56.5" class="st1" width="0.2" height="19.3"/>
<polygon class="st1" points="89.5,75.9 89.3,75.9 89.3,56.5 91,56.4 91,75.7 90.8,75.7 90.8,56.6 89.5,56.7 "/>
<rect x="102.7" y="56" class="st1" width="0.2" height="18.1"/>
<polygon class="st1" points="102,74.2 102,55.9 103.7,55.9 103.7,74 103.4,74 103.4,56.1 102.2,56.1 102.2,74.2 "/>
<path class="st1" d="M90.2,56.5H90c0.6-3.1,3.3-5.4,6.5-5.3h0.1c4,0,6.1,2.8,6.3,4.8h-0.2c-0.2-1.9-2.2-4.5-6.1-4.6h-0.1
	C93.5,51.3,90.8,53.5,90.2,56.5z"/>
<path class="st1" d="M91,56.6h-1.7v-0.1c0.2-1.6,0.9-3,2.1-4c2.9-2.6,7.4-2.6,10.3,0c1,0.9,1.7,2.2,1.9,3.6v0.1H102V56
	c-0.2-0.9-0.6-1.8-1.4-2.5c-1.1-1-2.5-1.5-4-1.5h-0.1C93.9,52,91.6,53.9,91,56.6L91,56.6z M90.2,56.4h0.6c0.6-2.7,3-4.5,5.8-4.5h0.1
	c1.5,0,3,0.5,4.1,1.5c0.7,0.7,1.2,1.5,1.4,2.5h1.3c-0.2-1.3-0.9-2.5-1.8-3.4c-1.3-1.2-3.1-1.9-4.9-1.9h-0.1c-1.9,0-3.6,0.7-5,1.9
	c-1.1,1-1.9,2.3-2.1,3.8L90.2,56.4L90.2,56.4z"/>
<polygon class="st1" points="96.6,56.5 99.5,51.9 99.7,52 97.2,56 101.8,53.7 101.9,53.8 "/>
<polygon class="st1" points="97.2,56.5 91,54.3 91,54.1 96.6,56.1 93.6,52 93.7,51.8 "/>
<rect x="25.9" y="44.1" class="st1" width="0.1" height="3.6"/>
<rect x="27.4" y="44" class="st1" width="0.1" height="3.7"/>
<rect x="28.2" y="44" class="st1" width="0.1" height="3.7"/>
<rect x="29.6" y="44" class="st1" width="0.1" height="3.8"/>
<rect x="30.4" y="44" class="st1" width="0.1" height="3.8"/>
<rect x="31.9" y="43.9" class="st1" width="0.1" height="3.9"/>
<rect x="32.7" y="43.9" class="st1" width="0.1" height="3.9"/>
<rect x="34.2" y="43.8" class="st1" width="0.1" height="4"/>
<rect x="34.9" y="43.8" class="st1" width="0.1" height="4"/>
<rect x="36.4" y="43.7" class="st1" width="0.1" height="4.1"/>
<rect x="37.2" y="43.7" class="st1" width="0.1" height="4.1"/>
<rect x="38.7" y="43.5" class="st1" width="0.1" height="4.2"/>
<rect x="39.5" y="43.5" class="st1" width="0.1" height="4.2"/>
<rect x="40.9" y="43.5" class="st1" width="0.1" height="4.3"/>
<rect x="41.7" y="43.4" class="st1" width="0.1" height="4.3"/>
<rect x="43.2" y="43.4" class="st1" width="0.1" height="4.3"/>
<rect x="105.4" y="37.6" transform="matrix(0.9512 -0.3087 0.3087 0.9512 -6.4386 34.5935)" class="st1" width="1.5" height="0.1"/>
<rect x="63" y="35.3" class="st1" width="0.3" height="44.3"/>
<rect x="62.1" y="27.2" transform="matrix(0.6895 -0.7243 0.7243 0.6895 -2.1065 54.2647)" class="st1" width="0.2" height="4.7"/>
<rect x="58.2" y="50.1" transform="matrix(0.6152 -0.7883 0.7883 0.6152 -15.9812 67.6307)" class="st1" width="6.2" height="0.2"/>
<polygon class="st1" points="22.7,51.1 22.5,51 25.1,47.7 25.2,47.8 "/>
<rect x="57.7" y="56.8" class="st1" width="0.1" height="10.4"/>
<rect x="50" y="56.5" class="st1" width="0.1" height="9.5"/>
<rect x="53.3" y="56.8" class="st1" width="0.1" height="9.8"/>
<rect x="74.4" y="37.9" class="st1" width="0.1" height="7.1"/>
<rect x="69.9" y="37.7" class="st1" width="0.1" height="7.2"/>
<polygon class="st1" points="122.3,38.8 105.4,38 105.4,37.8 122.3,38.6 "/>
<polygon class="st1" points="104.9,41.7 80.6,40.6 80.6,40.4 104.9,41.5 "/>
<rect x="36.4" y="55.2" class="st1" width="0.1" height="8.5"/>
<rect x="30.4" y="54.9" class="st1" width="0.1" height="7.7"/>
<rect x="32.9" y="55.1" class="st1" width="0.1" height="7.9"/>
<rect x="68" y="53" class="st1" width="0.1" height="15"/>
<rect x="72.4" y="53" class="st1" width="0.1" height="14.6"/>
<rect x="75.7" y="57.1" class="st1" width="0.1" height="10.3"/>
<rect x="68.6" y="24.5" class="st1" width="0.2" height="7.1"/>
<rect x="69.3" y="22.7" class="st1" width="0.3" height="2"/>
<rect x="60.4" y="24.6" class="st1" width="0.2" height="3.4"/>
<polygon class="st1" points="60,24.8 59.8,24.8 59.8,22.8 60,22.8 "/>
<rect x="106.9" y="51.9" transform="matrix(0.9997 -2.355977e-02 2.355977e-02 0.9997 -1.1925 2.7374)" class="st1" width="17.4" height="0.2"/>
<rect x="68.7" y="52.7" transform="matrix(0.9998 -2.111691e-02 2.111691e-02 0.9998 -1.0987 1.6478)" class="st1" width="17.5" height="0.2"/>
<rect x="60.3" y="76" transform="matrix(0.9926 -0.1217 0.1217 0.9926 -8.7312 9.1773)" class="st1" width="20.9" height="0.2"/>
<rect x="44.1" y="46.2" transform="matrix(0.2399 -0.9708 0.9708 0.2399 -36.607 97.8035)" class="st1" width="0.1" height="52.2"/>
<rect x="65.9" y="50.1" transform="matrix(6.226794e-02 -0.9981 0.9981 6.226794e-02 9.1041 115.4414)" class="st1" width="0.2" height="5.5"/>
<polygon class="st1" points="59.4,52.8 19.3,51 19.3,50.8 59.4,52.5 "/>
<rect x="44.1" y="50.1" transform="matrix(0.2152 -0.9766 0.9766 0.2152 -33.3261 97.7933)" class="st1" width="0.1" height="39"/>
<rect x="63.8" y="24.1" class="st1" width="0.2" height="7.2"/>
<rect x="63.4" y="22.1" class="st1" width="0.2" height="2"/>
<rect x="51.6" y="15.3" transform="matrix(9.219681e-02 -0.9957 0.9957 9.219681e-02 22.9537 73.4383)" class="st1" width="0.2" height="17.6"/>
<rect x="66.4" y="21.4" transform="matrix(9.688804e-02 -0.9953 0.9953 9.688804e-02 35.793 88.1604)" class="st1" width="0.2" height="6"/>
<rect x="66.4" y="19.4" transform="matrix(0.1049 -0.9945 0.9945 0.1049 37.223 86.1573)" class="st1" width="0.2" height="6"/>
<rect x="66.2" y="29" transform="matrix(6.575139e-02 -0.9978 0.9978 6.575139e-02 30.6151 95.5477)" class="st1" width="0.2" height="4.8"/>
<rect x="59.7" y="22.4" transform="matrix(0.9776 -0.2103 0.2103 0.9776 -3.351 13.4659)" class="st1" width="3.8" height="0.2"/>
<polygon class="st1" points="59.8,24.9 59.8,24.7 63.5,24 63.5,24.2 "/>
<path class="st1" d="M110.4,29L110.4,29c-0.1-3.7-3.1-6.8-6.9-6.8c-1.1,0-2.1,0.2-3.1,0.7v-0.1c1-0.5,2-0.7,3.1-0.7
	C107.4,22.1,110.4,25.2,110.4,29z"/>
<path class="st1" d="M110.4,29L110.4,29c-0.1-0.2-0.2-0.2-0.3-0.3v-0.1c0.1,0.1,0.2,0.1,0.3,0.2c0.1-0.1,0.2-0.2,0.3-0.2v0.1
	C110.6,28.7,110.5,28.8,110.4,29L110.4,29z"/>
<path class="st1" d="M100.7,23.1c-0.1-0.1-0.2-0.1-0.3-0.2h-0.1v-0.1c0.1-0.1,0.1-0.2,0.1-0.4h0.1c0,0.1,0,0.2-0.1,0.4
	C100.6,22.8,100.7,22.9,100.7,23.1L100.7,23.1z"/>
<rect x="97.7" y="25.5" transform="matrix(0.1018 -0.9948 0.9948 0.1018 61.3301 121.154)" class="st1" width="0.1" height="2.2"/>
<polygon class="st1" points="100.3,29.1 95,28.7 95,28.6 100.3,29 "/>
<polygon class="st1" points="101.6,31.5 93.4,30.8 93.4,30.7 101.6,31.4 "/>
<polygon class="st1" points="103,33.8 91.8,33 91.8,32.9 103.1,33.7 "/>
<polygon class="st1" points="104.3,36 90.1,35.2 90.1,35.1 104.3,35.9 "/>
<rect x="96.7" y="28.8" transform="matrix(4.993762e-02 -0.9988 0.9988 4.993762e-02 54.2418 132.5187)" class="st1" width="0.1" height="17.9"/>
<rect x="88.9" y="38.4" transform="matrix(3.699259e-02 -0.9993 0.9993 3.699259e-02 45.9386 127.1525)" class="st1" width="0.1" height="2.8"/>
<rect x="104.2" y="39" transform="matrix(3.699259e-02 -0.9993 0.9993 3.699259e-02 60.0623 142.9514)" class="st1" width="0.1" height="2.5"/>
<polygon class="st1" points="90.3,44.5 87.6,44.4 87.6,44.3 90.3,44.4 "/>
<polygon class="st1" points="105.4,44.7 102.9,44.7 102.9,44.5 105.4,44.6 "/>
<polygon class="st1" points="90.3,42.2 87.6,42.1 87.6,42 90.3,42.1 "/>
<polygon class="st1" points="105.4,42.5 102.9,42.5 102.9,42.4 105.4,42.5 "/>
<polygon class="st1" points="105.4,46.8 87.6,46.8 87.6,46.7 105.4,46.7 "/>
<polygon class="st1" points="87.6,49.1 87.6,49 105.4,48.9 105.4,49 "/>
<rect x="87.7" y="51.1" transform="matrix(0.9998 -1.999600e-02 1.999600e-02 0.9998 -1.0053 1.8198)" class="st1" width="5.6" height="0.1"/>
<rect x="99.7" y="51.1" transform="matrix(0.9998 -1.849943e-02 1.849943e-02 0.9998 -0.9284 1.9068)" class="st1" width="5.7" height="0.1"/>
<rect x="87.7" y="53.5" transform="matrix(0.9998 -1.999600e-02 1.999600e-02 0.9998 -1.0527 1.7934)" class="st1" width="2.9" height="0.1"/>
<rect x="102.4" y="53.2" transform="matrix(0.9996 -2.861949e-02 2.861949e-02 0.9996 -1.4821 2.9959)" class="st1" width="3" height="0.1"/>
<rect x="87.5" y="56" transform="matrix(0.9993 -3.786459e-02 3.786459e-02 0.9993 -2.0584 3.3915)" class="st1" width="1.9" height="0.1"/>
<polygon class="st1" points="103.5,55.5 103.5,55.4 105.5,55.3 105.5,55.4 "/>
<polygon class="st1" points="87.5,58.5 87.5,58.4 89.4,58.3 89.4,58.4 "/>
<polygon class="st1" points="103.6,57.7 103.6,57.6 105.4,57.5 105.4,57.6 "/>
<polygon class="st1" points="87.6,60.8 87.6,60.7 89.4,60.6 89.4,60.7 "/>
<polygon class="st1" points="103.6,59.8 103.6,59.7 105.4,59.6 105.4,59.7 "/>
<polygon class="st1" points="87.6,63.2 87.6,63.1 89.4,62.9 89.4,63 "/>
<polygon class="st1" points="103.6,62 103.6,61.9 105.5,61.8 105.5,61.9 "/>
<polygon class="st1" points="87.6,65.5 87.6,65.4 89.4,65.3 89.4,65.4 "/>
<polygon class="st1" points="103.6,64.2 103.6,64.1 105.4,64 105.4,64.1 "/>
<rect x="87.6" y="67.7" transform="matrix(0.9956 -9.323949e-02 9.323949e-02 0.9956 -5.9319 8.5451)" class="st1" width="1.9" height="0.1"/>
<polygon class="st1" points="103.6,66.4 103.6,66.3 105.4,66.1 105.4,66.2 "/>
<rect x="87.6" y="70" transform="matrix(0.9946 -0.104 0.104 0.9946 -6.8105 9.5844)" class="st1" width="1.8" height="0.1"/>
<rect x="103.6" y="68.4" transform="matrix(0.9946 -0.1038 0.1038 0.9946 -6.539 11.223)" class="st1" width="1.9" height="0.1"/>
<polygon class="st1" points="87.6,72.6 87.6,72.5 89.4,72.3 89.4,72.4 "/>
<polygon class="st1" points="103.6,70.8 103.6,70.7 105.5,70.4 105.5,70.5 "/>
<polygon class="st1" points="87.6,75 87.6,74.9 89.4,74.7 89.4,74.8 "/>
<polygon class="st1" points="103.6,73 103.6,72.9 105.5,72.6 105.5,72.7 "/>
<rect x="61.2" y="50.7" transform="matrix(6.981287e-03 -1 1 6.981287e-03 8.2511 113.5768)" class="st1" width="0.2" height="3.8"/>
<polygon class="st1" points="123.4,69.6 123.3,69.5 125.2,69.3 125.2,38.8 123.3,38.8 123.3,38.7 125.3,38.7 125.3,69.4 "/>
<polygon class="st1" points="63.2,81.6 44.9,77 45,76.9 63.2,81.5 "/>
<polygon class="st1" points="38.5,75.4 25.2,72 25.2,71.9 38.5,75.3 "/>
<path class="st1" d="M126.7,51.7L126.7,51.7c0.1-0.1,0.2-0.1,0.2,0c0.1,0.1,0.1,0.1,0.1,0.2c0,0.1,0,0.1-0.1,0.2
	c0,0.1-0.1,0.1-0.2,0.1c0,0-0.1,0-0.1,0c-0.1,0-0.1-0.1-0.2-0.1l-0.2-0.2v0.4h-0.1v-0.7l0.4,0.4l0.2,0.1c0,0,0.1,0,0.1,0
	c0,0,0.1,0,0.1-0.1c0.1-0.1,0.1-0.2,0-0.3C126.8,51.8,126.8,51.7,126.7,51.7z"/>
<path class="st1" d="M126.5,52.3c0.1,0,0.2,0,0.3,0c0.1,0,0.1,0.1,0.2,0.1c0,0,0.1,0.1,0.1,0.2c0,0.1,0,0.1-0.1,0.2
	c0,0.1-0.1,0.1-0.2,0.1c-0.2,0.1-0.4,0.1-0.5,0c-0.1,0-0.1-0.1-0.2-0.1c0,0-0.1-0.1-0.1-0.2c0-0.1,0-0.1,0-0.2
	c0-0.1,0.1-0.1,0.2-0.1C126.3,52.3,126.4,52.3,126.5,52.3z M126.5,52.4c-0.1,0-0.2,0-0.2,0c0,0-0.1,0-0.1,0.1c0,0,0,0.1,0,0.1
	c0,0,0,0.1,0,0.1c0,0,0.1,0.1,0.1,0.1c0.1,0,0.3,0,0.4,0c0.1,0,0.1,0,0.1-0.1c0.1-0.1,0.1-0.2,0-0.2c0,0-0.1-0.1-0.1-0.1
	C126.7,52.4,126.6,52.4,126.5,52.4L126.5,52.4z"/>
<path class="st1" d="M126.7,53.2L126.7,53.2L126.7,53.2h0.1v-0.1h0.2v0.1h-0.2L126.7,53.2z"/>
<path class="st1" d="M126.7,53.6L126.7,53.6L126.7,53.6h0.1v-0.1h0.2v0.1h-0.2L126.7,53.6z"/>
<path class="st1" d="M126.4,54.2v0.3h-0.1L126.4,54.2L126.4,54.2z"/>
<path class="st1" d="M127,55.2v0.2h-0.9v-0.1L127,55.2L127,55.2L127,55.2z"/>
<path class="st1" d="M126.7,55.8L126.7,55.8c0.1-0.1,0.2-0.1,0.2,0c0.1,0.1,0.1,0.1,0.1,0.2c0,0.1,0,0.1-0.1,0.2
	c0,0.1-0.1,0.1-0.2,0.1c0,0-0.1,0-0.1,0c-0.1,0-0.1-0.1-0.2-0.1l-0.2-0.2v0.4h-0.1v-0.7l0.4,0.3l0.2,0.1c0,0,0.1,0,0.1,0
	c0,0,0.1,0,0.1-0.1c0,0,0.1-0.1,0.1-0.1c0-0.1,0-0.1-0.1-0.1C126.8,55.8,126.7,55.8,126.7,55.8z"/>
<path class="st1" d="M126.7,56.5L126.7,56.5L126.7,56.5h0.1v-0.1h0.2v0.1h-0.2L126.7,56.5z"/>
<path class="st1" d="M126.7,57L126.7,57L126.7,57h0.1v-0.1h0.2V57h-0.2H126.7z"/>
<path class="st1" d="M95,78.2L95,78.2c-0.1-0.1-0.1-0.2,0-0.2c0-0.1,0.1-0.1,0.2-0.1c0.1,0,0.3,0.1,0.3,0.2c0,0,0,0,0,0
	c0,0,0,0.1,0,0.2c0,0.1-0.1,0.1-0.1,0.2l-0.2,0.3l0.4-0.1v0.1L95,78.9l0.3-0.4c0-0.1,0.1-0.1,0.1-0.2c0,0,0-0.1,0-0.1
	c0-0.1,0-0.1-0.1-0.1c-0.1-0.1-0.2,0-0.3,0c0,0,0,0,0,0C95,78.1,95,78.2,95,78.2z"/>
<path class="st1" d="M95.7,77.8h0.2l0.2,0.9l-0.1,0l-0.1-0.8L95.7,77.8L95.7,77.8z"/>
<path class="st1" d="M96.4,78L96.4,78L96.4,78c0-0.1,0-0.1-0.1-0.2h0v-0.2h0.1v0.1C96.5,77.8,96.5,77.9,96.4,78
	C96.5,77.9,96.5,78,96.4,78z"/>
<path class="st1" d="M96.9,77.9L96.9,77.9L96.9,77.9c0-0.1,0-0.1-0.1-0.2h0v-0.2h0.1v0.1C96.9,77.8,96.9,77.8,96.9,77.9
	C96.9,77.9,96.9,77.9,96.9,77.9z"/>
<path class="st1" d="M97.5,78h0.3v0.1l-0.3,0.1V78z"/>
<path class="st1" d="M98.4,77.4h0.2l0.2,0.9h-0.1l-0.1-0.8L98.4,77.4L98.4,77.4z"/>
<path class="st1" d="M98.9,77.7c0-0.1,0-0.2,0-0.3c0-0.1,0-0.1,0.1-0.2c0,0,0.1-0.1,0.2-0.1c0.1,0,0.1,0,0.2,0
	c0.1,0,0.1,0.1,0.1,0.1c0.1,0.2,0.1,0.3,0.1,0.5c0,0.1,0,0.1-0.1,0.2c0,0-0.1,0.1-0.2,0.1c-0.1,0-0.1,0-0.2,0
	c-0.1,0-0.1-0.1-0.1-0.1C99,77.9,98.9,77.8,98.9,77.7z M99,77.7c0,0.1,0,0.2,0.1,0.2c0,0,0.1,0.1,0.1,0.1c0.1,0.1,0.2,0.1,0.2,0
	c0,0,0.1-0.1,0.1-0.1c0-0.2,0-0.3-0.1-0.4c0,0-0.1-0.1-0.1-0.1c0,0-0.1,0-0.1,0c0,0-0.1,0-0.1,0.1c0,0-0.1,0.1-0.1,0.1
	C99,77.6,99,77.7,99,77.7L99,77.7z"/>
<path class="st1" d="M99.8,77.4L99.8,77.4L99.8,77.4c0-0.1,0-0.1-0.1-0.2h0v-0.2h0.1v0.1C99.8,77.2,99.8,77.3,99.8,77.4
	C99.8,77.4,99.8,77.4,99.8,77.4z"/>
<path class="st1" d="M100.2,77.4L100.2,77.4L100.2,77.4c0-0.1,0-0.1-0.1-0.2h-0.1V77h0.1v0.1C100.2,77.2,100.2,77.2,100.2,77.4
	C100.2,77.3,100.2,77.3,100.2,77.4z"/>
<path class="st1" d="M39.2,75.3L39.2,75.3c-0.1-0.1,0-0.1,0.1-0.2c0.1,0,0.2,0,0.2,0c0.1,0,0.2,0.2,0.2,0.3c0,0,0,0,0,0
	c0,0,0,0.1-0.1,0.1c-0.1,0.1-0.1,0.1-0.2,0.1l-0.3,0.2l0.4,0.1v0.1L39,75.9l0.4-0.3l0.2-0.1c0,0,0-0.1,0.1-0.1c0,0,0-0.1,0-0.1
	c0,0-0.1-0.1-0.1-0.1c0,0-0.1,0-0.2,0C39.3,75.2,39.2,75.3,39.2,75.3z"/>
<path class="st1" d="M39.7,75.7c0-0.1,0.1-0.2,0.1-0.3c0-0.1,0.1-0.1,0.1-0.1c0.1,0,0.1,0,0.2,0c0.1,0,0.1,0,0.1,0.1
	c0,0,0.1,0.1,0.1,0.2c0,0.1,0,0.2,0,0.3c0,0.1-0.1,0.2-0.1,0.2c0,0.1-0.1,0.1-0.2,0.1c-0.1,0-0.1,0-0.2,0c-0.1,0-0.1,0-0.1-0.1
	c0,0-0.1-0.1-0.1-0.2C39.7,75.8,39.7,75.7,39.7,75.7z M39.8,75.7c0,0.1,0,0.2,0,0.2c0,0,0,0.1,0,0.1c0,0,0.1,0.1,0.1,0.1
	c0,0,0.1,0,0.1,0c0,0,0.1,0,0.1-0.1c0-0.1,0.1-0.1,0.1-0.2c0-0.1,0-0.1,0-0.2c0,0,0-0.1,0-0.1c0,0-0.1-0.1-0.1-0.1c0,0-0.1,0-0.1,0
	c0,0-0.1,0-0.1,0.1C39.9,75.5,39.8,75.6,39.8,75.7L39.8,75.7z"/>
<path class="st1" d="M40.6,75.7L40.6,75.7L40.6,75.7v-0.1h0v-0.2h0.1v0.1C40.7,75.6,40.7,75.6,40.6,75.7L40.6,75.7z"/>
<path class="st1" d="M41,75.8L41,75.8L41,75.8v-0.1l0,0v-0.2h0.1v0.1c0,0,0,0.1,0,0.1L41,75.8z"/>
<path class="st1" d="M41.6,76.2l0.3,0.1v0.1L41.6,76.2L41.6,76.2z"/>
<path class="st1" d="M42.6,76h0.2l-0.2,0.9h-0.1L42.6,76L42.6,76L42.6,76z"/>
<path class="st1" d="M43.1,76.4L43.1,76.4c-0.1-0.1,0-0.1,0.1-0.2c0.1,0,0.2,0,0.2,0c0.1,0,0.2,0.2,0.2,0.3c0,0,0,0,0,0
	c0,0,0,0.1-0.1,0.1c-0.1,0.1-0.1,0.1-0.2,0.1L43.1,77l0.4,0v0.1L42.9,77l0.4-0.3l0.2-0.1c0,0,0-0.1,0.1-0.1c0,0,0-0.1,0-0.1
	c0,0-0.1-0.1-0.1-0.1c0,0-0.1,0-0.2,0C43.2,76.3,43.2,76.3,43.1,76.4z"/>
<path class="st1" d="M43.9,76.6L43.9,76.6L43.9,76.6v-0.1h0v-0.2H44v0.1C44,76.5,44,76.5,43.9,76.6L43.9,76.6z"/>
<path class="st1" d="M44.3,76.7L44.3,76.7L44.3,76.7v-0.1h0v-0.2h0.1v0.1C44.4,76.6,44.4,76.6,44.3,76.7L44.3,76.7z"/>
<polygon class="st1" points="40.9,36.6 40.8,36.6 51,23.8 51.1,23.9 "/>
<path class="st1" d="M44.7,29.5L44.7,29.5l0.2,0.4c0,0,0-0.1,0-0.1c0-0.1,0.1-0.1,0.2-0.1c0.1,0,0.1,0,0.2,0.1c0,0,0.1,0.1,0.1,0.1
	c0,0,0,0.1,0,0.1c0,0,0,0.1-0.1,0.1c0,0-0.1,0.1-0.1,0.1c0,0-0.1,0-0.1,0c0,0,0,0,0-0.1c0,0-0.1-0.1-0.1-0.1c0,0,0-0.1-0.1-0.1
	L44.7,29.5z M45,29.9c-0.1,0.1,0,0.2,0.1,0.3c0.1,0,0.2,0,0.2,0c0.1-0.1,0.1-0.2,0-0.3c0,0-0.1,0-0.1,0C45.1,29.8,45,29.8,45,29.9z"
	/>
<path class="st1" d="M45.2,29.3L45.2,29.3L45.2,29.3l0-0.1l0,0l-0.1-0.1l-0.1,0l0.1,0.1L45.2,29.3L45.2,29.3z"/>
<path class="st1" d="M45.5,29L45.5,29L45.5,29l0-0.1l0,0l-0.1-0.1l0.1-0.1l0.1,0.1l0.1,0.1L45.5,29z"/>
<rect x="95.6" y="25.4" transform="matrix(0.6835 -0.7299 0.7299 0.6835 6.3649 80.219)" class="st1" width="0.1" height="14.7"/>
<polygon class="st1" points="44.2,72.3 44.2,72.2 93.5,66.1 93.6,66.2 "/>
<polygon class="st1" points="82,75.1 48.3,68.2 48.3,68.1 82,74.9 "/>
<polygon class="st1" points="120,75.3 86.4,68.4 86.4,68.3 120.1,75.2 "/>
</svg>
